<svg width="130" height="130" viewBox="0 0 130 130" fill="none" xmlns="http://www.w3.org/2000/svg">
<rect width="49" height="36" transform="translate(43 49)" fill="#65C449"/>
<g filter="url(#filter0_d_513_3578)">
<path fill-rule="evenodd" clip-rule="evenodd" d="M64.9987 25.584C86.7677 25.584 104.415 43.2317 104.415 65.0006C104.415 86.7696 86.7677 104.417 64.9987 104.417C43.2297 104.417 25.582 86.7696 25.582 65.0006C25.582 43.2317 43.2297 25.584 64.9987 25.584ZM54.1087 59.3907C53.5874 58.9049 52.8979 58.6404 52.1854 58.653C51.473 58.6656 50.7933 58.9542 50.2894 59.458C49.7856 59.9619 49.497 60.6416 49.4844 61.3541C49.4718 62.0665 49.7363 62.756 50.222 63.2773L63.0554 76.1106C63.571 76.6256 64.2699 76.9149 64.9987 76.9149C65.7274 76.9149 66.4264 76.6256 66.942 76.1106L79.7754 63.2773C80.0456 63.0256 80.2623 62.722 80.4126 62.3846C80.5629 62.0473 80.6437 61.6831 80.6502 61.3139C80.6567 60.9447 80.5888 60.5779 80.4505 60.2355C80.3122 59.893 80.1063 59.582 79.8452 59.3208C79.584 59.0597 79.273 58.8538 78.9306 58.7155C78.5881 58.5772 78.2214 58.5093 77.8521 58.5158C77.4829 58.5223 77.1187 58.6031 76.7814 58.7535C76.4441 58.9038 76.1405 59.1205 75.8887 59.3907L64.9987 70.2806L54.1087 59.3907Z" fill="white"/>
</g>
<defs>
<filter id="filter0_d_513_3578" x="0.582031" y="0.583984" width="128.832" height="128.833" filterUnits="userSpaceOnUse" color-interpolation-filters="sRGB">
<feFlood flood-opacity="0" result="BackgroundImageFix"/>
<feColorMatrix in="SourceAlpha" type="matrix" values="0 0 0 0 0 0 0 0 0 0 0 0 0 0 0 0 0 0 127 0" result="hardAlpha"/>
<feOffset/>
<feGaussianBlur stdDeviation="12.5"/>
<feComposite in2="hardAlpha" operator="out"/>
<feColorMatrix type="matrix" values="0 0 0 0 0 0 0 0 0 0 0 0 0 0 0 0 0 0 0.25 0"/>
<feBlend mode="normal" in2="BackgroundImageFix" result="effect1_dropShadow_513_3578"/>
<feBlend mode="normal" in="SourceGraphic" in2="effect1_dropShadow_513_3578" result="shape"/>
</filter>
</defs>
</svg>
