<svg width="78" height="79" viewBox="0 0 78 79" fill="none" xmlns="http://www.w3.org/2000/svg">
<path d="M1.21938 71.7837L38.4194 34.5837L32.9944 29.0812L30.2044 31.8325C29.8459 32.1917 29.4201 32.4767 28.9513 32.6712C28.4825 32.8656 27.98 32.9657 27.4725 32.9657C26.965 32.9657 26.4625 32.8656 25.9937 32.6712C25.5249 32.4767 25.0991 32.1917 24.7406 31.8325L21.9894 29.0812C21.6301 28.7227 21.3452 28.2969 21.1507 27.8281C20.9562 27.3594 20.8562 26.8569 20.8562 26.3494C20.8562 25.8419 20.9562 25.3393 21.1507 24.8706C21.3452 24.4018 21.6301 23.976 21.9894 23.6175L43.9219 1.68498C44.2804 1.32575 44.7062 1.04076 45.175 0.846303C45.6437 0.651849 46.1463 0.551758 46.6538 0.551758C47.1613 0.551758 47.6638 0.651849 48.1325 0.846303C48.6013 1.04076 49.0271 1.32575 49.3856 1.68498L52.1369 4.43623C53.6481 5.94748 53.6481 8.38873 52.1369 9.89998L49.3856 12.5737L54.8881 18.115C55.2466 17.7558 55.6724 17.4708 56.1412 17.2763C56.61 17.0819 57.1125 16.9818 57.62 16.9818C58.1275 16.9818 58.63 17.0819 59.0988 17.2763C59.5676 17.4708 59.9934 17.7558 60.3519 18.115C61.8631 19.6262 61.8631 22.1062 60.3519 23.6175L65.8156 29.0812L68.5669 26.33C70.0781 24.8187 72.5581 24.8187 74.0694 26.33L76.7819 29.0812C78.2931 30.5925 78.2931 33.0725 76.7819 34.5837L54.8881 56.4775C53.3769 57.9887 50.8969 57.9887 49.3856 56.4775L46.6731 53.765C46.3052 53.4074 46.0127 52.9797 45.813 52.5072C45.6133 52.0346 45.5103 51.5268 45.5103 51.0137C45.5103 50.5007 45.6133 49.9929 45.813 49.5203C46.0127 49.0477 46.3052 48.62 46.6731 48.2625L49.3856 45.5112L43.9219 40.0475L6.68313 77.2862C6.32464 77.6455 5.89882 77.9305 5.43005 78.1249C4.96127 78.3194 4.45875 78.4194 3.95125 78.4194C3.44375 78.4194 2.94123 78.3194 2.47246 78.1249C2.00368 77.9305 1.57787 77.6455 1.21938 77.2862C-0.291875 75.775 -0.291875 73.295 1.21938 71.7837ZM69.8069 66.8237C71.8623 66.8237 73.8335 67.6403 75.287 69.0937C76.7404 70.5471 77.5569 72.5183 77.5569 74.5737V78.4487H38.8069V74.5737C38.8069 72.5183 39.6234 70.5471 41.0768 69.0937C42.5302 67.6403 44.5014 66.8237 46.5569 66.8237H69.8069Z" fill="white"/>
</svg>
