<svg width="100" height="73" viewBox="0 0 100 73" fill="none" xmlns="http://www.w3.org/2000/svg">
<path d="M41.0846 27.1372V19.558C38.6325 18.5177 36.124 17.7375 33.559 17.2174C30.9939 16.6973 28.3011 16.4372 25.4805 16.4372C23.5485 16.4372 21.6537 16.5858 19.7961 16.883C17.9385 17.1802 16.118 17.5518 14.3346 17.9976V25.1309C16.118 24.4622 17.9206 23.9614 19.7426 23.6285C21.5646 23.2956 23.4772 23.1277 25.4805 23.1247C28.3041 23.1247 31.0162 23.4784 33.6169 24.1858C36.2176 24.8932 38.7069 25.877 41.0846 27.1372ZM41.0846 51.658V44.0789C38.6325 43.0386 36.124 42.2584 33.559 41.7382C30.9939 41.2181 28.3011 40.958 25.4805 40.958C23.5485 40.958 21.6537 41.1066 19.7961 41.4039C17.9385 41.7011 16.118 42.0726 14.3346 42.5184V49.6518C16.118 48.983 17.9206 48.4807 19.7426 48.1449C21.5646 47.809 23.4772 47.6426 25.4805 47.6455C28.3041 47.6455 31.0162 47.9799 33.6169 48.6486C36.2176 49.3174 38.7069 50.3205 41.0846 51.658ZM41.0846 39.3976V31.8184C38.6325 30.7782 36.124 29.998 33.559 29.4778C30.9939 28.9577 28.3011 28.6976 25.4805 28.6976C23.5485 28.6976 21.6537 28.8462 19.7961 29.1434C17.9385 29.4407 16.118 29.8122 14.3346 30.258V37.3914C16.118 36.7226 17.9206 36.2203 19.7426 35.8844C21.5646 35.5486 23.4772 35.3821 25.4805 35.3851C28.3041 35.3851 31.0162 35.7388 33.6169 36.4462C36.2176 37.1536 38.7069 38.1374 41.0846 39.3976ZM45.543 59.0143C42.2735 57.4539 38.9848 56.2828 35.6767 55.5011C32.3686 54.7194 28.9699 54.3301 25.4805 54.333C22.8055 54.333 20.1854 54.5559 17.6204 55.0018C15.0554 55.4476 12.474 56.1164 9.8763 57.008V12.8705C12.3284 11.8302 14.8741 11.05 17.5134 10.5299C20.1528 10.0098 22.8084 9.74969 25.4805 9.74969C28.9728 9.74969 32.428 10.1955 35.8461 11.0872C39.2641 11.9789 42.4964 13.3164 45.543 15.0997V59.0143ZM50.0013 72.1664C53.568 69.3428 57.4319 67.1507 61.593 65.5903C65.7541 64.0299 70.0638 63.2497 74.5221 63.2497C77.643 63.2497 80.7073 63.6584 83.7152 64.4757C86.7231 65.2931 89.6032 66.4448 92.3555 67.9309C93.9159 68.7483 95.4198 68.7111 96.8673 67.8195C98.3148 66.9278 99.04 65.6275 99.043 63.9184V10.1955C99.043 9.37816 98.8379 8.59795 98.4277 7.8549C98.0176 7.11184 97.4053 6.55455 96.5909 6.18302C93.0985 4.47399 89.5125 3.15433 85.8329 2.22402C82.1533 1.29372 78.3831 0.83005 74.5221 0.833022C70.2124 0.833022 65.9948 1.39031 61.8694 2.5049C57.7439 3.61948 53.7879 5.29136 50.0013 7.52052C46.2117 5.29136 42.2542 3.61948 38.1288 2.5049C34.0033 1.39031 29.7872 0.833022 25.4805 0.833022C21.6166 0.833022 17.8448 1.29818 14.1652 2.22848C10.4856 3.15879 6.9011 4.47697 3.41171 6.18302C2.59435 6.55455 1.98058 7.11184 1.57042 7.8549C1.16026 8.59795 0.956657 9.37816 0.959633 10.1955V63.9184C0.959633 65.6275 1.68336 66.9278 3.13084 67.8195C4.57831 68.7111 6.08374 68.7483 7.64713 67.9309C10.3964 66.4448 13.275 65.2931 16.2829 64.4757C19.2908 63.6584 22.3567 63.2497 25.4805 63.2497C29.9388 63.2497 34.2485 64.0299 38.4096 65.5903C42.5707 67.1507 46.4346 69.3428 50.0013 72.1664Z" fill="white"/>
</svg>
