<svg width="21" height="21" viewBox="0 0 21 21" fill="none" xmlns="http://www.w3.org/2000/svg">
<path fill-rule="evenodd" clip-rule="evenodd" d="M15.4181 9.35632C15.4181 10.196 15.2528 11.0274 14.9314 11.8031C14.6101 12.5789 14.1391 13.2837 13.5454 13.8775C12.9517 14.4712 12.2468 14.9421 11.4711 15.2635C10.6954 15.5848 9.86394 15.7502 9.02429 15.7502C8.18464 15.7502 7.35321 15.5848 6.57747 15.2635C5.80173 14.9421 5.09688 14.4712 4.50316 13.8775C3.90943 13.2837 3.43847 12.5789 3.11715 11.8031C2.79582 11.0274 2.63044 10.196 2.63044 9.35632C2.63044 7.66057 3.30408 6.03427 4.50316 4.83519C5.70224 3.63611 7.32854 2.96247 9.02429 2.96247C10.72 2.96247 12.3463 3.63611 13.5454 4.83519C14.7445 6.03427 15.4181 7.66057 15.4181 9.35632ZM14.253 16.0912C12.54 17.4211 10.3846 18.0481 8.22549 17.8447C6.0664 17.6413 4.066 16.6227 2.63151 14.9963C1.19702 13.3698 0.436289 11.2579 0.504183 9.09027C0.572077 6.92268 1.46349 4.86245 2.99696 3.32899C4.53042 1.79552 6.59065 0.904109 8.75824 0.836214C10.9258 0.76832 13.0378 1.52905 14.6642 2.96354C16.2907 4.39803 17.3093 6.39843 17.5127 8.55752C17.7161 10.7166 17.089 12.8721 15.7591 14.5851L19.7233 18.5493C19.828 18.6468 19.912 18.7645 19.9702 18.8952C20.0285 19.0259 20.0598 19.167 20.0623 19.3101C20.0649 19.4532 20.0385 19.5953 19.9849 19.728C19.9313 19.8607 19.8516 19.9812 19.7504 20.0824C19.6492 20.1836 19.5287 20.2634 19.396 20.317C19.2633 20.3706 19.1211 20.3969 18.9781 20.3944C18.835 20.3918 18.6939 20.3605 18.5631 20.3023C18.4324 20.244 18.3148 20.1601 18.2172 20.0554L14.253 16.0912Z" fill="white"/>
</svg>
