<svg width="86" height="76" viewBox="0 0 86 76" fill="none" xmlns="http://www.w3.org/2000/svg">
<path d="M40.1814 7.89687L22.9748 27.1344C22.296 27.8914 22.3255 29.0641 23.0486 29.7914C27.5495 34.3187 34.8542 34.3187 39.355 29.7914L44.0477 25.0711C44.6675 24.4477 45.4497 24.1063 46.2465 24.0469C47.25 23.9578 48.283 24.2992 49.0504 25.0711L75.1111 51.0625L85.5 42.75V0L68.9722 9.5L65.4601 7.13984C63.1298 5.58077 60.3933 4.74932 57.5946 4.75H47.2057C47.0434 4.75 46.8663 4.75 46.704 4.76484C44.2101 4.89844 41.8637 6.02656 40.1814 7.89687ZM17.7066 22.3695L33.467 4.75H27.6233C23.8602 4.75 20.2596 6.24922 17.6033 8.92109L0.5 28.5V80.75L21.75 60.5625L23.5799 62.0914C26.974 64.9414 31.2535 66.5 35.6658 66.5H37.9826L36.9497 65.4609C35.5625 64.0656 35.5625 61.8094 36.9497 60.4289C38.3368 59.0484 40.5799 59.0336 41.9523 60.4289L48.0026 66.5148H49.3307C52.1493 66.5148 54.9089 65.8766 57.4175 64.6891L53.4774 60.7109C52.0903 59.3156 52.0903 57.0594 53.4774 55.6789C54.8646 54.2984 57.1076 54.2836 58.48 55.6789L63.2023 60.4289L65.7847 57.8312C67.0981 56.5102 67.4818 54.5953 66.9062 52.918L46.5564 32.6117L44.3576 34.8234C37.0825 42.1414 25.3064 42.1414 18.0312 34.8234C14.6372 31.4094 14.5043 25.932 17.7066 22.3547V22.3695Z" fill="white"/>
</svg>
