<svg width="232" height="232" viewBox="0 0 232 232" fill="none" xmlns="http://www.w3.org/2000/svg">
<g filter="url(#filter0_d_632_1079)">
<rect width="200" height="200" rx="100" transform="matrix(-1 0 0 1 216 16)" fill="white" shape-rendering="crispEdges"/>
<path d="M110.742 81.0389H126.52L143.823 61.7943C144.312 61.2477 144.893 60.8139 145.534 60.5178C146.175 60.2218 146.862 60.0693 147.557 60.0693C148.251 60.0693 148.938 60.2218 149.579 60.5178C150.22 60.8139 150.802 61.2477 151.291 61.7943L164.86 76.8984C165.839 77.9911 166.389 79.4691 166.389 81.0098C166.389 82.5504 165.839 84.0285 164.86 85.1211L152.816 98.534H110.742V110.197C110.742 111.744 110.188 113.227 109.201 114.321C108.215 115.415 106.877 116.029 105.483 116.029C104.088 116.029 102.75 115.415 101.764 114.321C100.777 113.227 100.223 111.744 100.223 110.197V92.7023C100.223 89.609 101.332 86.6423 103.304 84.455C105.277 82.2677 107.952 81.0389 110.742 81.0389ZM79.1863 110.197V133.524L67.1426 146.879C66.1631 147.971 65.6133 149.449 65.6133 150.99C65.6133 152.531 66.1631 154.009 67.1426 155.101L80.7115 170.205C81.2004 170.752 81.7821 171.186 82.423 171.482C83.0639 171.778 83.7513 171.93 84.4456 171.93C85.1399 171.93 85.8273 171.778 86.4682 171.482C87.1091 171.186 87.6908 170.752 88.1797 170.205L110.742 145.188H131.779C133.174 145.188 134.511 144.573 135.498 143.479C136.484 142.386 137.038 140.902 137.038 139.356V133.524H142.297C143.692 133.524 145.03 132.91 146.016 131.816C147.003 130.722 147.557 129.239 147.557 127.692V121.861H152.816C154.211 121.861 155.549 121.246 156.535 120.153C157.521 119.059 158.075 117.576 158.075 116.029V110.197H121.26V116.029C121.26 119.122 120.152 122.089 118.18 124.276C116.207 126.464 113.532 127.692 110.742 127.692H100.223C97.4337 127.692 94.7583 126.464 92.7857 124.276C90.8131 122.089 89.7049 119.122 89.7049 116.029V98.534L79.1863 110.197Z" fill="#32BA96"/>
</g>
<defs>
<filter id="filter0_d_632_1079" x="0.276729" y="0.276729" width="231.447" height="231.447" filterUnits="userSpaceOnUse" color-interpolation-filters="sRGB">
<feFlood flood-opacity="0" result="BackgroundImageFix"/>
<feColorMatrix in="SourceAlpha" type="matrix" values="0 0 0 0 0 0 0 0 0 0 0 0 0 0 0 0 0 0 127 0" result="hardAlpha"/>
<feOffset/>
<feGaussianBlur stdDeviation="7.86164"/>
<feComposite in2="hardAlpha" operator="out"/>
<feColorMatrix type="matrix" values="0 0 0 0 0 0 0 0 0 0 0 0 0 0 0 0 0 0 0.25 0"/>
<feBlend mode="normal" in2="BackgroundImageFix" result="effect1_dropShadow_632_1079"/>
<feBlend mode="normal" in="SourceGraphic" in2="effect1_dropShadow_632_1079" result="shape"/>
</filter>
</defs>
</svg>
