<svg width="20" height="16" viewBox="0 0 20 16" fill="none" xmlns="http://www.w3.org/2000/svg">
<path fill-rule="evenodd" clip-rule="evenodd" d="M19.5499 1.30394C19.8311 1.58523 19.9891 1.96669 19.9891 2.36444C19.9891 2.76218 19.8311 3.14365 19.5499 3.42494L8.30693 14.6679C8.15835 14.8166 7.98196 14.9344 7.78781 15.0149C7.59367 15.0953 7.38558 15.1367 7.17543 15.1367C6.96529 15.1367 6.7572 15.0953 6.56305 15.0149C6.36891 14.9344 6.19251 14.8166 6.04393 14.6679L0.457932 9.08294C0.314667 8.94457 0.200394 8.77905 0.12178 8.59604C0.0431668 8.41304 0.00178736 8.21621 5.66349e-05 8.01704C-0.00167409 7.81787 0.0362786 7.62035 0.1117 7.43601C0.187121 7.25166 0.298501 7.08418 0.43934 6.94334C0.580179 6.80251 0.747657 6.69113 0.932001 6.61571C1.11635 6.54028 1.31387 6.50233 1.51303 6.50406C1.7122 6.50579 1.90903 6.54717 2.09204 6.62579C2.27505 6.7044 2.44056 6.81867 2.57893 6.96194L7.17493 11.5579L17.4279 1.30394C17.5672 1.16455 17.7326 1.05397 17.9147 0.97853C18.0967 0.903088 18.2919 0.864258 18.4889 0.864258C18.686 0.864258 18.8811 0.903088 19.0632 0.97853C19.2452 1.05397 19.4106 1.16455 19.5499 1.30394Z" fill="#65C449"/>
</svg>
