<svg width="26" height="34" viewBox="0 0 26 34" fill="none" xmlns="http://www.w3.org/2000/svg">
<path d="M13.0625 21.5C11.6042 21.5 10.3646 20.9896 9.34375 19.9688C8.32292 18.9479 7.8125 17.7083 7.8125 16.25V5.75C7.8125 4.29167 8.32292 3.05208 9.34375 2.03125C10.3646 1.01042 11.6042 0.5 13.0625 0.5C14.5208 0.5 15.7604 1.01042 16.7812 2.03125C17.8021 3.05208 18.3125 4.29167 18.3125 5.75V16.25C18.3125 17.7083 17.8021 18.9479 16.7812 19.9688C15.7604 20.9896 14.5208 21.5 13.0625 21.5ZM11.3125 33.75V28.3687C8.27917 27.9604 5.77083 26.6042 3.7875 24.3C1.80417 21.9958 0.8125 19.3125 0.8125 16.25H4.3125C4.3125 18.6708 5.16592 20.7347 6.87275 22.4415C8.57958 24.1483 10.6428 25.0012 13.0625 25C15.4822 24.9988 17.546 24.1454 19.254 22.4397C20.962 20.7341 21.8148 18.6708 21.8125 16.25H25.3125C25.3125 19.3125 24.3208 21.9958 22.3375 24.3C20.3542 26.6042 17.8458 27.9604 14.8125 28.3687V33.75H11.3125Z" fill="#0099FF"/>
</svg>
