<svg width="267" height="50" viewBox="0 0 267 50" fill="none" xmlns="http://www.w3.org/2000/svg">
<path d="M90.94 25.4422L71.8973 0.489451C71.5293 0.00963047 70.8622 -0.139475 70.3213 0.140972L48.2422 11.5684L68.8009 38.504L90.5239 27.2582C90.8469 27.0913 91.0797 26.7946 91.1579 26.4447C91.2391 26.0948 91.1594 25.7287 90.94 25.4422Z" fill="#417CDB"/>
<path d="M90.7377 30.0645L68.7227 41.6059L69.056 42.2436L91.0711 30.7006L90.7377 30.0645Z" fill="#2A58A3"/>
<path d="M68.4249 45.4615L91.156 33.542L90.8225 32.9043L68.0898 44.8253L68.4249 45.4615Z" fill="#2A58A3"/>
<path d="M91.1705 35.1111L66.8828 47.8388C66.1452 48.0263 66.3143 47.4501 66.3127 46.5481C66.3818 44.1233 66.9735 42.0043 67.6311 41.3113L46.6056 13.2773C45.6667 14.4037 44.8584 17.9087 45.5269 21.7242L66.2912 49.4093C66.4417 49.609 66.7168 49.6705 66.9366 49.5538L91.3135 36.6401C91.5301 36.5248 91.6792 36.3128 91.7145 36.07C91.7468 35.8272 91.6638 35.5829 91.4856 35.4123L91.1705 35.1111Z" fill="#2A58A3"/>
<path d="M67.0798 12.5053L67.7472 13.5622L68.5801 13.0362C68.8371 12.8739 69.1326 12.7819 69.4365 12.7686L70.9202 12.702C70.9646 12.7 71.0054 12.6872 71.0426 12.6637L72.9315 11.4708C73.0996 11.3646 73.3031 11.3295 73.4971 11.3734C73.6912 11.4172 73.8598 11.5363 73.9661 11.7045C74.0723 11.8726 74.1073 12.0761 74.0635 12.2702C74.0197 12.4642 73.9006 12.6329 73.7324 12.7391L73.3714 12.9671L77.6617 15.8069C77.7885 15.891 77.8868 16.0116 77.9435 16.1529C78.0002 16.2941 78.0125 16.4493 77.9789 16.5977L77.2478 16.4326L77.9786 16.5991L77.9788 16.6013L77.9782 16.604L77.9764 16.6123L77.9739 16.6198L77.9708 16.6336L77.9541 16.6914C77.8698 16.9536 77.7566 17.2025 77.6144 17.4382C77.3445 17.8854 76.8904 18.4324 76.1464 18.9023C75.5585 19.2832 74.8898 19.5217 74.1935 19.5987C73.9205 19.6261 73.6452 19.6214 73.3732 19.5845L73.3138 19.5747L73.2923 19.5706L73.284 19.5687L73.2785 19.5674L73.278 19.5666C73.1295 19.5331 72.9947 19.4553 72.8916 19.3435C72.7884 19.2316 72.7217 19.091 72.7003 18.9403L71.9806 13.8455L71.8436 13.932C71.5857 14.0948 71.2907 14.1877 70.9863 14.2002L69.5026 14.2667C69.4592 14.2686 69.417 14.2818 69.3802 14.305L68.5482 14.8304L73.621 22.8627L75.7347 21.5277C75.9029 21.4215 76.1064 21.3865 76.3004 21.4303C76.4945 21.4741 76.6631 21.5932 76.7693 21.7614C76.8756 21.9296 76.9106 22.133 76.8668 22.3271C76.823 22.5211 76.7039 22.6898 76.5357 22.796L71.04 26.2668C70.8718 26.3731 70.6683 26.4081 70.4743 26.3643C70.2802 26.3205 70.1116 26.2014 70.0054 26.0332C69.8991 25.865 69.8641 25.6615 69.9079 25.4675C69.9517 25.2735 70.0708 25.1048 70.239 24.9986L72.3527 23.6636L67.28 15.6314L66.448 16.1568C66.4112 16.1801 66.3812 16.2125 66.3608 16.251L65.6645 17.5624C65.5205 17.8307 65.3104 18.058 65.0525 18.2209L64.9156 18.3074L69.2067 21.1467C69.3335 21.2308 69.4318 21.3514 69.4885 21.4927C69.5452 21.6339 69.5575 21.789 69.524 21.9375L68.7928 21.7724L69.5236 21.9388L69.5239 21.9411L69.5232 21.9438L69.5214 21.9521L69.5159 21.9733L69.4992 22.0312C69.4148 22.2934 69.3016 22.5423 69.1594 22.778C68.8895 23.2252 68.4355 23.7722 67.6914 24.2421C67.1035 24.623 66.4348 24.8615 65.7386 24.9384C65.4655 24.9659 65.1902 24.9611 64.9183 24.9243L64.8588 24.9145L64.8373 24.9103L64.829 24.9085L64.8235 24.9072L64.823 24.9064C64.6745 24.8729 64.5397 24.7951 64.4366 24.6832C64.3334 24.5714 64.2667 24.4308 64.2453 24.2801L63.5256 19.1852L63.1637 19.4138C62.9955 19.52 62.792 19.5551 62.598 19.5112C62.404 19.4674 62.2353 19.3483 62.1291 19.1801C62.0229 19.012 61.9878 18.8085 62.0316 18.6145C62.0754 18.4204 62.1945 18.2518 62.3627 18.1455L64.2516 16.9526C64.2887 16.9294 64.3191 16.8967 64.3396 16.858L65.0351 15.5471C65.1791 15.2788 65.3891 15.0515 65.647 14.8886L66.479 14.3632L65.8115 13.3063C65.7053 13.1381 65.6702 12.9346 65.7141 12.7406C65.7579 12.5466 65.877 12.3779 66.0452 12.2717C66.2133 12.1655 66.4168 12.1304 66.6109 12.1742C66.8049 12.218 66.9736 12.3371 67.0798 12.5053ZM74.0963 18.1001C74.4093 18.062 74.8491 17.9475 75.3454 17.634C75.8417 17.3206 76.1342 16.9727 76.303 16.7064L73.6511 14.9513L74.0963 18.1001ZM65.6413 23.4398C65.9544 23.4018 66.3941 23.2873 66.8905 22.9738C67.3868 22.6604 67.6792 22.3125 67.8481 22.0461L65.1961 20.291L65.6413 23.4398Z" fill="white"/>
<path d="M101.258 21.8062L104.838 7.20615H108.638L112.258 21.8062H109.198L108.498 18.5062H105.018L104.318 21.8062H101.258ZM105.518 16.1062H107.978L107.278 12.5862C107.184 12.0795 107.084 11.5795 106.978 11.0862C106.884 10.5795 106.811 10.1862 106.758 9.90615C106.704 10.1862 106.631 10.5728 106.538 11.0662C106.458 11.5595 106.364 12.0595 106.258 12.5662L105.518 16.1062ZM118.29 22.0062C117.383 22.0062 116.59 21.8662 115.91 21.5862C115.23 21.2928 114.697 20.8928 114.31 20.3862C113.937 19.8795 113.75 19.2862 113.75 18.6062H116.75C116.75 18.9262 116.89 19.1862 117.17 19.3862C117.463 19.5728 117.837 19.6662 118.29 19.6662H119.17C119.717 19.6662 120.13 19.5662 120.41 19.3662C120.703 19.1662 120.85 18.8862 120.85 18.5262C120.85 18.1928 120.723 17.9395 120.47 17.7662C120.217 17.5795 119.823 17.4528 119.29 17.3862L118.01 17.2262C116.637 17.0528 115.637 16.7195 115.01 16.2262C114.383 15.7328 114.07 14.9795 114.07 13.9662C114.07 12.8995 114.437 12.0728 115.17 11.4862C115.903 10.8995 116.977 10.6062 118.39 10.6062H119.15C120.497 10.6062 121.57 10.8995 122.37 11.4862C123.17 12.0728 123.57 12.8595 123.57 13.8462H120.57C120.57 13.5795 120.437 13.3662 120.17 13.2062C119.917 13.0328 119.577 12.9462 119.15 12.9462H118.39C117.897 12.9462 117.537 13.0328 117.31 13.2062C117.083 13.3662 116.97 13.6128 116.97 13.9462C116.97 14.2528 117.07 14.4862 117.27 14.6462C117.483 14.8062 117.817 14.9195 118.27 14.9862L119.65 15.1662C121.037 15.3395 122.063 15.6862 122.73 16.2062C123.41 16.7262 123.75 17.4995 123.75 18.5262C123.75 19.6462 123.363 20.5062 122.59 21.1062C121.817 21.7062 120.677 22.0062 119.17 22.0062H118.29ZM130.282 22.0062C129.376 22.0062 128.582 21.8662 127.902 21.5862C127.222 21.2928 126.689 20.8928 126.302 20.3862C125.929 19.8795 125.742 19.2862 125.742 18.6062H128.742C128.742 18.9262 128.882 19.1862 129.162 19.3862C129.456 19.5728 129.829 19.6662 130.282 19.6662H131.162C131.709 19.6662 132.122 19.5662 132.402 19.3662C132.696 19.1662 132.842 18.8862 132.842 18.5262C132.842 18.1928 132.716 17.9395 132.462 17.7662C132.209 17.5795 131.816 17.4528 131.282 17.3862L130.002 17.2262C128.629 17.0528 127.629 16.7195 127.002 16.2262C126.376 15.7328 126.062 14.9795 126.062 13.9662C126.062 12.8995 126.429 12.0728 127.162 11.4862C127.896 10.8995 128.969 10.6062 130.382 10.6062H131.142C132.489 10.6062 133.562 10.8995 134.362 11.4862C135.162 12.0728 135.562 12.8595 135.562 13.8462H132.562C132.562 13.5795 132.429 13.3662 132.162 13.2062C131.909 13.0328 131.569 12.9462 131.142 12.9462H130.382C129.889 12.9462 129.529 13.0328 129.302 13.2062C129.076 13.3662 128.962 13.6128 128.962 13.9462C128.962 14.2528 129.062 14.4862 129.262 14.6462C129.476 14.8062 129.809 14.9195 130.262 14.9862L131.642 15.1662C133.029 15.3395 134.056 15.6862 134.722 16.2062C135.402 16.7262 135.742 17.4995 135.742 18.5262C135.742 19.6462 135.356 20.5062 134.582 21.1062C133.809 21.7062 132.669 22.0062 131.162 22.0062H130.282ZM138.134 21.8062V19.0862H141.934V13.5062H138.634V10.8062H144.734V19.0862H147.934V21.8062H138.134ZM143.134 9.06615C142.588 9.06615 142.148 8.92615 141.814 8.64615C141.494 8.36615 141.334 7.98615 141.334 7.50615C141.334 7.02615 141.494 6.64615 141.814 6.36615C142.148 6.08615 142.588 5.94615 143.134 5.94615C143.681 5.94615 144.114 6.08615 144.434 6.36615C144.768 6.64615 144.934 7.02615 144.934 7.50615C144.934 7.98615 144.768 8.36615 144.434 8.64615C144.114 8.92615 143.681 9.06615 143.134 9.06615ZM154.267 22.0062C153.36 22.0062 152.567 21.8662 151.887 21.5862C151.207 21.2928 150.673 20.8928 150.287 20.3862C149.913 19.8795 149.727 19.2862 149.727 18.6062H152.727C152.727 18.9262 152.867 19.1862 153.147 19.3862C153.44 19.5728 153.813 19.6662 154.267 19.6662H155.147C155.693 19.6662 156.107 19.5662 156.387 19.3662C156.68 19.1662 156.827 18.8862 156.827 18.5262C156.827 18.1928 156.7 17.9395 156.447 17.7662C156.193 17.5795 155.8 17.4528 155.267 17.3862L153.987 17.2262C152.613 17.0528 151.613 16.7195 150.987 16.2262C150.36 15.7328 150.047 14.9795 150.047 13.9662C150.047 12.8995 150.413 12.0728 151.147 11.4862C151.88 10.8995 152.953 10.6062 154.367 10.6062H155.127C156.473 10.6062 157.547 10.8995 158.347 11.4862C159.147 12.0728 159.547 12.8595 159.547 13.8462H156.547C156.547 13.5795 156.413 13.3662 156.147 13.2062C155.893 13.0328 155.553 12.9462 155.127 12.9462H154.367C153.873 12.9462 153.513 13.0328 153.287 13.2062C153.06 13.3662 152.947 13.6128 152.947 13.9462C152.947 14.2528 153.047 14.4862 153.247 14.6462C153.46 14.8062 153.793 14.9195 154.247 14.9862L155.627 15.1662C157.013 15.3395 158.04 15.6862 158.707 16.2062C159.387 16.7262 159.727 17.4995 159.727 18.5262C159.727 19.6462 159.34 20.5062 158.567 21.1062C157.793 21.7062 156.653 22.0062 155.147 22.0062H154.267ZM167.919 21.8062C166.799 21.8062 165.919 21.4862 165.279 20.8462C164.639 20.2062 164.319 19.3262 164.319 18.2062V13.5062H161.419V10.8062H164.319V7.70615H167.319V10.8062H171.419V13.5062H167.319V18.2062C167.319 18.8062 167.619 19.1062 168.219 19.1062H171.219V21.8062H167.919ZM178.731 22.0062C177.758 22.0062 176.904 21.8262 176.171 21.4662C175.451 21.0928 174.891 20.5795 174.491 19.9262C174.104 19.2595 173.911 18.4862 173.911 17.6062V15.0062C173.911 14.1262 174.104 13.3595 174.491 12.7062C174.891 12.0395 175.451 11.5262 176.171 11.1662C176.904 10.7928 177.758 10.6062 178.731 10.6062C179.704 10.6062 180.544 10.7928 181.251 11.1662C181.971 11.5262 182.524 12.0395 182.911 12.7062C183.311 13.3595 183.511 14.1262 183.511 15.0062V17.0062H176.771V17.6062C176.771 18.2995 176.938 18.8262 177.271 19.1862C177.604 19.5328 178.104 19.7062 178.771 19.7062C179.238 19.7062 179.611 19.6262 179.891 19.4662C180.184 19.3062 180.378 19.0862 180.471 18.8062H183.411C183.171 19.7662 182.624 20.5395 181.771 21.1262C180.931 21.7128 179.918 22.0062 178.731 22.0062ZM180.651 15.4662V14.9662C180.651 14.2862 180.491 13.7662 180.171 13.4062C179.864 13.0462 179.384 12.8662 178.731 12.8662C178.078 12.8662 177.584 13.0528 177.251 13.4262C176.931 13.7995 176.771 14.3262 176.771 15.0062V15.3062L180.851 15.2662L180.651 15.4662ZM186.023 21.8062V10.8062H188.923V12.9062H189.803L188.923 13.6062C188.923 12.6728 189.19 11.9395 189.723 11.4062C190.256 10.8728 190.976 10.6062 191.883 10.6062C192.95 10.6062 193.803 10.9795 194.443 11.7262C195.096 12.4728 195.423 13.4662 195.423 14.7062V21.8062H192.423V15.0062C192.423 14.4328 192.27 13.9928 191.963 13.6862C191.67 13.3662 191.25 13.2062 190.703 13.2062C190.17 13.2062 189.756 13.3662 189.463 13.6862C189.17 13.9928 189.023 14.4328 189.023 15.0062V21.8062H186.023ZM203.895 21.8062C202.775 21.8062 201.895 21.4862 201.255 20.8462C200.615 20.2062 200.295 19.3262 200.295 18.2062V13.5062H197.395V10.8062H200.295V7.70615H203.295V10.8062H207.395V13.5062H203.295V18.2062C203.295 18.8062 203.595 19.1062 204.195 19.1062H207.195V21.8062H203.895ZM214.708 22.0062C213.734 22.0062 212.881 21.8262 212.148 21.4662C211.428 21.0928 210.868 20.5795 210.468 19.9262C210.081 19.2595 209.888 18.4862 209.888 17.6062V15.0062C209.888 14.1262 210.081 13.3595 210.468 12.7062C210.868 12.0395 211.428 11.5262 212.148 11.1662C212.881 10.7928 213.734 10.6062 214.708 10.6062C215.681 10.6062 216.521 10.7928 217.228 11.1662C217.948 11.5262 218.501 12.0395 218.888 12.7062C219.288 13.3595 219.488 14.1262 219.488 15.0062V17.0062H212.748V17.6062C212.748 18.2995 212.914 18.8262 213.248 19.1862C213.581 19.5328 214.081 19.7062 214.748 19.7062C215.214 19.7062 215.588 19.6262 215.868 19.4662C216.161 19.3062 216.354 19.0862 216.448 18.8062H219.388C219.148 19.7662 218.601 20.5395 217.748 21.1262C216.908 21.7128 215.894 22.0062 214.708 22.0062ZM216.628 15.4662V14.9662C216.628 14.2862 216.468 13.7662 216.148 13.4062C215.841 13.0462 215.361 12.8662 214.708 12.8662C214.054 12.8662 213.561 13.0528 213.228 13.4262C212.908 13.7995 212.748 14.3262 212.748 15.0062V15.3062L216.828 15.2662L216.628 15.4662ZM122.886 41.8062L119.286 30.8062H122.386L124.226 36.9862C124.333 37.3595 124.439 37.7662 124.546 38.2062C124.653 38.6462 124.733 38.9995 124.786 39.2662C124.853 38.9995 124.933 38.6462 125.026 38.2062C125.133 37.7662 125.233 37.3662 125.326 37.0062L127.146 30.8062H130.206L126.646 41.8062H122.886ZM132.138 41.8062V39.0862H135.938V33.5062H132.638V30.8062H138.738V39.0862H141.938V41.8062H132.138ZM137.138 29.0662C136.592 29.0662 136.152 28.9262 135.818 28.6462C135.498 28.3662 135.338 27.9862 135.338 27.5062C135.338 27.0262 135.498 26.6462 135.818 26.3662C136.152 26.0862 136.592 25.9462 137.138 25.9462C137.685 25.9462 138.118 26.0862 138.438 26.3662C138.772 26.6462 138.938 27.0262 138.938 27.5062C138.938 27.9862 138.772 28.3662 138.438 28.6462C138.118 28.9262 137.685 29.0662 137.138 29.0662ZM144.37 41.8062V30.8062H147.17V32.9062H147.93L147.07 34.1862C147.07 32.9995 147.344 32.1062 147.89 31.5062C148.437 30.9062 149.237 30.6062 150.29 30.6062C151.504 30.6062 152.444 30.9728 153.11 31.7062C153.79 32.4395 154.13 33.4728 154.13 34.8062V35.7062H150.93V35.0062C150.93 34.4062 150.764 33.9395 150.43 33.6062C150.11 33.2728 149.677 33.1062 149.13 33.1062C148.557 33.1062 148.117 33.2728 147.81 33.6062C147.517 33.9395 147.37 34.4062 147.37 35.0062V41.8062H144.37ZM161.923 41.8062C160.803 41.8062 159.923 41.4862 159.283 40.8462C158.643 40.2062 158.323 39.3262 158.323 38.2062V33.5062H155.423V30.8062H158.323V27.7062H161.323V30.8062H165.423V33.5062H161.323V38.2062C161.323 38.8062 161.623 39.1062 162.223 39.1062H165.223V41.8062H161.923ZM172.715 42.0062C171.235 42.0062 170.075 41.6062 169.235 40.8062C168.408 40.0062 167.995 38.9128 167.995 37.5262V30.8062H170.995V37.5062C170.995 38.1195 171.142 38.5928 171.435 38.9262C171.728 39.2462 172.155 39.4062 172.715 39.4062C173.262 39.4062 173.682 39.2462 173.975 38.9262C174.282 38.5928 174.435 38.1195 174.435 37.5062V30.8062H177.435V37.5262C177.435 38.9262 177.015 40.0262 176.175 40.8262C175.335 41.6128 174.182 42.0062 172.715 42.0062ZM183.287 42.0062C182.18 42.0062 181.3 41.7062 180.647 41.1062C180.007 40.5062 179.687 39.6928 179.687 38.6662C179.687 37.5595 180.067 36.7128 180.827 36.1262C181.6 35.5262 182.707 35.2262 184.147 35.2262H186.427V34.4062C186.427 33.9795 186.274 33.6395 185.967 33.3862C185.674 33.1328 185.274 33.0062 184.767 33.0062C184.3 33.0062 183.914 33.1128 183.607 33.3262C183.3 33.5395 183.114 33.8328 183.047 34.2062H180.147C180.267 33.0995 180.747 32.2262 181.587 31.5862C182.44 30.9328 183.534 30.6062 184.867 30.6062C186.267 30.6062 187.374 30.9528 188.187 31.6462C189.014 32.3262 189.427 33.2462 189.427 34.4062V41.8062H186.527V40.0062H186.047L186.547 39.3062C186.547 40.1328 186.247 40.7928 185.647 41.2862C185.06 41.7662 184.274 42.0062 183.287 42.0062ZM184.407 39.8062C184.994 39.8062 185.474 39.6528 185.847 39.3462C186.234 39.0262 186.427 38.6128 186.427 38.1062V36.9262H184.207C183.754 36.9262 183.387 37.0595 183.107 37.3262C182.827 37.5795 182.687 37.9195 182.687 38.3462C182.687 38.7995 182.84 39.1595 183.147 39.4262C183.454 39.6795 183.874 39.8062 184.407 39.8062ZM198.499 41.8062C197.726 41.8062 197.046 41.6462 196.459 41.3262C195.873 40.9928 195.413 40.5328 195.079 39.9462C194.759 39.3595 194.599 38.6795 194.599 37.9062V29.9062H191.199V27.2062H197.599V37.9062C197.599 38.2662 197.706 38.5595 197.919 38.7862C198.146 38.9995 198.439 39.1062 198.799 39.1062H201.999V41.8062H198.499Z" fill="#417CDB"/>
</svg>
