<svg width="267" height="50" viewBox="0 0 267 50" fill="none" xmlns="http://www.w3.org/2000/svg">
<path d="M90.94 25.4422L71.8973 0.489451C71.5293 0.00963047 70.8622 -0.139475 70.3213 0.140972L48.2422 11.5684L68.8009 38.504L90.5239 27.2582C90.8469 27.0913 91.0797 26.7946 91.1579 26.4447C91.2391 26.0948 91.1594 25.7287 90.94 25.4422Z" fill="#417CDB"/>
<path d="M90.7377 30.0645L68.7227 41.6059L69.056 42.2436L91.0711 30.7006L90.7377 30.0645Z" fill="#2A58A3"/>
<path d="M68.4249 45.4615L91.156 33.542L90.8225 32.9043L68.0898 44.8253L68.4249 45.4615Z" fill="#2A58A3"/>
<path d="M91.1705 35.1111L66.8828 47.8388C66.1452 48.0263 66.3143 47.4501 66.3127 46.5481C66.3818 44.1233 66.9735 42.0043 67.6311 41.3113L46.6056 13.2773C45.6667 14.4037 44.8584 17.9087 45.5269 21.7242L66.2912 49.4093C66.4417 49.609 66.7168 49.6705 66.9366 49.5538L91.3135 36.6401C91.5301 36.5248 91.6792 36.3128 91.7145 36.07C91.7468 35.8272 91.6638 35.5829 91.4856 35.4123L91.1705 35.1111Z" fill="#2A58A3"/>
<path d="M67.0798 12.5053L67.7472 13.5622L68.5801 13.0362C68.8371 12.8739 69.1326 12.7819 69.4365 12.7686L70.9202 12.702C70.9646 12.7 71.0054 12.6872 71.0426 12.6637L72.9315 11.4708C73.0996 11.3646 73.3031 11.3295 73.4971 11.3734C73.6912 11.4172 73.8598 11.5363 73.9661 11.7045C74.0723 11.8726 74.1073 12.0761 74.0635 12.2702C74.0197 12.4642 73.9006 12.6329 73.7324 12.7391L73.3714 12.9671L77.6617 15.8069C77.7885 15.891 77.8868 16.0116 77.9435 16.1529C78.0002 16.2941 78.0125 16.4493 77.9789 16.5977L77.2478 16.4326L77.9786 16.5991L77.9788 16.6013L77.9782 16.604L77.9764 16.6123L77.9739 16.6198L77.9708 16.6336L77.9541 16.6914C77.8698 16.9536 77.7566 17.2025 77.6144 17.4382C77.3445 17.8854 76.8904 18.4324 76.1464 18.9023C75.5585 19.2832 74.8898 19.5217 74.1935 19.5987C73.9205 19.6261 73.6452 19.6214 73.3732 19.5845L73.3138 19.5747L73.2923 19.5706L73.284 19.5687L73.2785 19.5674L73.278 19.5666C73.1295 19.5331 72.9947 19.4553 72.8916 19.3435C72.7884 19.2316 72.7217 19.091 72.7003 18.9403L71.9806 13.8455L71.8436 13.932C71.5857 14.0948 71.2907 14.1877 70.9863 14.2002L69.5026 14.2667C69.4592 14.2686 69.417 14.2818 69.3802 14.305L68.5482 14.8304L73.621 22.8627L75.7347 21.5277C75.9029 21.4215 76.1064 21.3865 76.3004 21.4303C76.4945 21.4741 76.6631 21.5932 76.7693 21.7614C76.8756 21.9296 76.9106 22.133 76.8668 22.3271C76.823 22.5211 76.7039 22.6898 76.5357 22.796L71.04 26.2668C70.8718 26.3731 70.6683 26.4081 70.4743 26.3643C70.2802 26.3205 70.1116 26.2014 70.0054 26.0332C69.8991 25.865 69.8641 25.6615 69.9079 25.4675C69.9517 25.2735 70.0708 25.1048 70.239 24.9986L72.3527 23.6636L67.28 15.6314L66.448 16.1568C66.4112 16.1801 66.3812 16.2125 66.3608 16.251L65.6645 17.5624C65.5205 17.8307 65.3104 18.058 65.0525 18.2209L64.9156 18.3074L69.2067 21.1467C69.3335 21.2308 69.4318 21.3514 69.4885 21.4927C69.5452 21.6339 69.5575 21.789 69.524 21.9375L68.7928 21.7724L69.5236 21.9388L69.5239 21.9411L69.5232 21.9438L69.5214 21.9521L69.5159 21.9733L69.4992 22.0312C69.4148 22.2934 69.3016 22.5423 69.1594 22.778C68.8895 23.2252 68.4355 23.7722 67.6914 24.2421C67.1035 24.623 66.4348 24.8615 65.7386 24.9384C65.4655 24.9659 65.1902 24.9611 64.9183 24.9243L64.8588 24.9145L64.8373 24.9103L64.829 24.9085L64.8235 24.9072L64.823 24.9064C64.6745 24.8729 64.5397 24.7951 64.4366 24.6832C64.3334 24.5714 64.2667 24.4308 64.2453 24.2801L63.5256 19.1852L63.1637 19.4138C62.9955 19.52 62.792 19.5551 62.598 19.5112C62.404 19.4674 62.2353 19.3483 62.1291 19.1801C62.0229 19.012 61.9878 18.8085 62.0316 18.6145C62.0754 18.4204 62.1945 18.2518 62.3627 18.1455L64.2516 16.9526C64.2887 16.9294 64.3191 16.8967 64.3396 16.858L65.0351 15.5471C65.1791 15.2788 65.3891 15.0515 65.647 14.8886L66.479 14.3632L65.8115 13.3063C65.7053 13.1381 65.6702 12.9346 65.7141 12.7406C65.7579 12.5466 65.877 12.3779 66.0452 12.2717C66.2133 12.1655 66.4168 12.1304 66.6109 12.1742C66.8049 12.218 66.9736 12.3371 67.0798 12.5053ZM74.0963 18.1001C74.4093 18.062 74.8491 17.9475 75.3454 17.634C75.8417 17.3206 76.1342 16.9727 76.303 16.7064L73.6511 14.9513L74.0963 18.1001ZM65.6413 23.4398C65.9544 23.4018 66.3941 23.2873 66.8905 22.9738C67.3868 22.6604 67.6792 22.3125 67.8481 22.0461L65.1961 20.291L65.6413 23.4398Z" fill="white"/>
<path d="M101.458 21.8062L105.138 7.20615H108.358L112.058 21.8062H109.498L108.698 18.2662H104.818L104.018 21.8062H101.458ZM105.278 16.2262H108.238L107.358 12.3062C107.211 11.6528 107.084 11.0662 106.978 10.5462C106.871 10.0128 106.798 9.62615 106.758 9.38615C106.718 9.62615 106.644 10.0128 106.538 10.5462C106.444 11.0662 106.318 11.6462 106.158 12.2862L105.278 16.2262ZM118.33 21.9862C117.49 21.9862 116.757 21.8528 116.13 21.5862C115.503 21.3195 115.01 20.9528 114.65 20.4862C114.303 20.0062 114.117 19.4462 114.09 18.8062H116.59C116.617 19.1528 116.783 19.4328 117.09 19.6462C117.41 19.8595 117.823 19.9662 118.33 19.9662H119.21C119.823 19.9662 120.283 19.8462 120.59 19.6062C120.897 19.3662 121.05 19.0395 121.05 18.6262C121.05 18.2395 120.91 17.9395 120.63 17.7262C120.363 17.4995 119.943 17.3528 119.37 17.2862L118.01 17.0862C116.757 16.9128 115.837 16.5795 115.25 16.0862C114.663 15.5928 114.37 14.8528 114.37 13.8662C114.37 12.8395 114.717 12.0462 115.41 11.4862C116.103 10.9128 117.123 10.6262 118.47 10.6262H119.23C120.457 10.6262 121.437 10.8995 122.17 11.4462C122.903 11.9928 123.297 12.7262 123.35 13.6462H120.85C120.81 13.3528 120.643 13.1128 120.35 12.9262C120.07 12.7395 119.697 12.6462 119.23 12.6462H118.47C117.897 12.6462 117.477 12.7528 117.21 12.9662C116.957 13.1662 116.83 13.4662 116.83 13.8662C116.83 14.2395 116.943 14.5195 117.17 14.7062C117.397 14.8795 117.763 15.0062 118.27 15.0862L119.69 15.2862C120.997 15.4728 121.957 15.8262 122.57 16.3462C123.197 16.8528 123.51 17.6062 123.51 18.6062C123.51 19.6728 123.143 20.5062 122.41 21.1062C121.69 21.6928 120.623 21.9862 119.21 21.9862H118.33ZM130.322 21.9862C129.482 21.9862 128.749 21.8528 128.122 21.5862C127.496 21.3195 127.002 20.9528 126.642 20.4862C126.296 20.0062 126.109 19.4462 126.082 18.8062H128.582C128.609 19.1528 128.776 19.4328 129.082 19.6462C129.402 19.8595 129.816 19.9662 130.322 19.9662H131.202C131.816 19.9662 132.276 19.8462 132.582 19.6062C132.889 19.3662 133.042 19.0395 133.042 18.6262C133.042 18.2395 132.902 17.9395 132.622 17.7262C132.356 17.4995 131.936 17.3528 131.362 17.2862L130.002 17.0862C128.749 16.9128 127.829 16.5795 127.242 16.0862C126.656 15.5928 126.362 14.8528 126.362 13.8662C126.362 12.8395 126.709 12.0462 127.402 11.4862C128.096 10.9128 129.116 10.6262 130.462 10.6262H131.222C132.449 10.6262 133.429 10.8995 134.162 11.4462C134.896 11.9928 135.289 12.7262 135.342 13.6462H132.842C132.802 13.3528 132.636 13.1128 132.342 12.9262C132.062 12.7395 131.689 12.6462 131.222 12.6462H130.462C129.889 12.6462 129.469 12.7528 129.202 12.9662C128.949 13.1662 128.822 13.4662 128.822 13.8662C128.822 14.2395 128.936 14.5195 129.162 14.7062C129.389 14.8795 129.756 15.0062 130.262 15.0862L131.682 15.2862C132.989 15.4728 133.949 15.8262 134.562 16.3462C135.189 16.8528 135.502 17.6062 135.502 18.6062C135.502 19.6728 135.136 20.5062 134.402 21.1062C133.682 21.6928 132.616 21.9862 131.202 21.9862H130.322ZM138.254 21.8062V19.5262H142.094V13.0662H138.754V10.8062H144.494V19.5262H147.894V21.8062H138.254ZM143.094 8.96615C142.588 8.96615 142.188 8.83949 141.894 8.58615C141.601 8.31948 141.454 7.96615 141.454 7.52615C141.454 7.08615 141.601 6.73948 141.894 6.48615C142.188 6.21949 142.588 6.08615 143.094 6.08615C143.601 6.08615 144.001 6.21949 144.294 6.48615C144.588 6.73948 144.734 7.08615 144.734 7.52615C144.734 7.96615 144.588 8.31948 144.294 8.58615C144.001 8.83949 143.601 8.96615 143.094 8.96615ZM154.307 21.9862C153.467 21.9862 152.733 21.8528 152.107 21.5862C151.48 21.3195 150.987 20.9528 150.627 20.4862C150.28 20.0062 150.093 19.4462 150.067 18.8062H152.567C152.593 19.1528 152.76 19.4328 153.067 19.6462C153.387 19.8595 153.8 19.9662 154.307 19.9662H155.187C155.8 19.9662 156.26 19.8462 156.567 19.6062C156.873 19.3662 157.027 19.0395 157.027 18.6262C157.027 18.2395 156.887 17.9395 156.607 17.7262C156.34 17.4995 155.92 17.3528 155.347 17.2862L153.987 17.0862C152.733 16.9128 151.813 16.5795 151.227 16.0862C150.64 15.5928 150.347 14.8528 150.347 13.8662C150.347 12.8395 150.693 12.0462 151.387 11.4862C152.08 10.9128 153.1 10.6262 154.447 10.6262H155.207C156.433 10.6262 157.413 10.8995 158.147 11.4462C158.88 11.9928 159.273 12.7262 159.327 13.6462H156.827C156.787 13.3528 156.62 13.1128 156.327 12.9262C156.047 12.7395 155.673 12.6462 155.207 12.6462H154.447C153.873 12.6462 153.453 12.7528 153.187 12.9662C152.933 13.1662 152.807 13.4662 152.807 13.8662C152.807 14.2395 152.92 14.5195 153.147 14.7062C153.373 14.8795 153.74 15.0062 154.247 15.0862L155.667 15.2862C156.973 15.4728 157.933 15.8262 158.547 16.3462C159.173 16.8528 159.487 17.6062 159.487 18.6062C159.487 19.6728 159.12 20.5062 158.387 21.1062C157.667 21.6928 156.6 21.9862 155.187 21.9862H154.307ZM167.919 21.8062C166.865 21.8062 166.039 21.5128 165.439 20.9262C164.852 20.3395 164.559 19.5328 164.559 18.5062V13.0662H161.579V10.8062H164.559V7.70615H167.079V10.8062H171.299V13.0662H167.079V18.5062C167.079 19.1995 167.419 19.5462 168.099 19.5462H171.099V21.8062H167.919ZM178.731 22.0062C177.798 22.0062 176.984 21.8262 176.291 21.4662C175.598 21.1062 175.058 20.6062 174.671 19.9662C174.298 19.3128 174.111 18.5528 174.111 17.6862V14.9262C174.111 14.0595 174.298 13.3062 174.671 12.6662C175.058 12.0128 175.598 11.5062 176.291 11.1462C176.984 10.7862 177.798 10.6062 178.731 10.6062C179.651 10.6062 180.451 10.7862 181.131 11.1462C181.824 11.5062 182.358 12.0128 182.731 12.6662C183.118 13.3062 183.311 14.0595 183.311 14.9262V16.9062H176.531V17.6862C176.531 18.4595 176.718 19.0462 177.091 19.4462C177.464 19.8328 178.018 20.0262 178.751 20.0262C179.311 20.0262 179.764 19.9328 180.111 19.7462C180.458 19.5462 180.678 19.2595 180.771 18.8862H183.231C183.044 19.8328 182.538 20.5928 181.711 21.1662C180.898 21.7262 179.904 22.0062 178.731 22.0062ZM180.891 15.5062V14.9062C180.891 14.1462 180.711 13.5662 180.351 13.1662C179.991 12.7528 179.451 12.5462 178.731 12.5462C178.011 12.5462 177.464 12.7528 177.091 13.1662C176.718 13.5795 176.531 14.1662 176.531 14.9262V15.3462L181.071 15.3062L180.891 15.5062ZM186.243 21.8062V10.8062H188.683V12.9062H189.363L188.683 13.4862C188.683 12.5795 188.943 11.8728 189.463 11.3662C189.996 10.8595 190.723 10.6062 191.643 10.6062C192.723 10.6062 193.583 10.9662 194.223 11.6862C194.876 12.4062 195.203 13.3728 195.203 14.5862V21.8062H192.703V14.8462C192.703 14.1795 192.53 13.6662 192.183 13.3062C191.836 12.9462 191.35 12.7662 190.723 12.7662C190.11 12.7662 189.623 12.9528 189.263 13.3262C188.916 13.6995 188.743 14.2328 188.743 14.9262V21.8062H186.243ZM203.895 21.8062C202.842 21.8062 202.015 21.5128 201.415 20.9262C200.829 20.3395 200.535 19.5328 200.535 18.5062V13.0662H197.555V10.8062H200.535V7.70615H203.055V10.8062H207.275V13.0662H203.055V18.5062C203.055 19.1995 203.395 19.5462 204.075 19.5462H207.075V21.8062H203.895ZM214.708 22.0062C213.774 22.0062 212.961 21.8262 212.268 21.4662C211.574 21.1062 211.034 20.6062 210.648 19.9662C210.274 19.3128 210.088 18.5528 210.088 17.6862V14.9262C210.088 14.0595 210.274 13.3062 210.648 12.6662C211.034 12.0128 211.574 11.5062 212.268 11.1462C212.961 10.7862 213.774 10.6062 214.708 10.6062C215.628 10.6062 216.428 10.7862 217.108 11.1462C217.801 11.5062 218.334 12.0128 218.708 12.6662C219.094 13.3062 219.288 14.0595 219.288 14.9262V16.9062H212.508V17.6862C212.508 18.4595 212.694 19.0462 213.068 19.4462C213.441 19.8328 213.994 20.0262 214.728 20.0262C215.288 20.0262 215.741 19.9328 216.088 19.7462C216.434 19.5462 216.654 19.2595 216.748 18.8862H219.208C219.021 19.8328 218.514 20.5928 217.688 21.1662C216.874 21.7262 215.881 22.0062 214.708 22.0062ZM216.868 15.5062V14.9062C216.868 14.1462 216.688 13.5662 216.328 13.1662C215.968 12.7528 215.428 12.5462 214.708 12.5462C213.988 12.5462 213.441 12.7528 213.068 13.1662C212.694 13.5795 212.508 14.1662 212.508 14.9262V15.3462L217.048 15.3062L216.868 15.5062ZM123.146 41.8062L119.526 30.8062H122.086L124.186 37.4862C124.306 37.8862 124.419 38.2995 124.526 38.7262C124.646 39.1528 124.733 39.4928 124.786 39.7462C124.853 39.4928 124.939 39.1528 125.046 38.7262C125.153 38.2995 125.259 37.8928 125.366 37.5062L127.426 30.8062H129.966L126.366 41.8062H123.146ZM132.258 41.8062V39.5262H136.098V33.0662H132.758V30.8062H138.498V39.5262H141.898V41.8062H132.258ZM137.098 28.9662C136.592 28.9662 136.192 28.8395 135.898 28.5862C135.605 28.3195 135.458 27.9662 135.458 27.5262C135.458 27.0862 135.605 26.7395 135.898 26.4862C136.192 26.2195 136.592 26.0862 137.098 26.0862C137.605 26.0862 138.005 26.2195 138.298 26.4862C138.592 26.7395 138.738 27.0862 138.738 27.5262C138.738 27.9662 138.592 28.3195 138.298 28.5862C138.005 28.8395 137.605 28.9662 137.098 28.9662ZM144.61 41.8062V30.8062H146.97V32.9062H147.59L146.85 34.1862C146.85 32.9995 147.117 32.1062 147.65 31.5062C148.184 30.9062 148.97 30.6062 150.01 30.6062C151.197 30.6062 152.13 30.9728 152.81 31.7062C153.49 32.4395 153.83 33.4528 153.83 34.7462V35.5462H151.21V34.9262C151.21 34.2195 151.024 33.6728 150.65 33.2862C150.29 32.8995 149.79 32.7062 149.15 32.7062C148.497 32.7062 147.99 32.8995 147.63 33.2862C147.284 33.6728 147.11 34.2195 147.11 34.9262V41.8062H144.61ZM161.923 41.8062C160.869 41.8062 160.043 41.5128 159.443 40.9262C158.856 40.3395 158.563 39.5328 158.563 38.5062V33.0662H155.583V30.8062H158.563V27.7062H161.083V30.8062H165.303V33.0662H161.083V38.5062C161.083 39.1995 161.423 39.5462 162.103 39.5462H165.103V41.8062H161.923ZM172.715 42.0062C171.315 42.0062 170.215 41.6195 169.415 40.8462C168.615 40.0595 168.215 38.9928 168.215 37.6462V30.8062H170.715V37.6262C170.715 38.3328 170.888 38.8795 171.235 39.2662C171.582 39.6395 172.075 39.8262 172.715 39.8262C173.342 39.8262 173.828 39.6395 174.175 39.2662C174.535 38.8795 174.715 38.3328 174.715 37.6262V30.8062H177.215V37.6462C177.215 38.9928 176.808 40.0595 175.995 40.8462C175.182 41.6195 174.088 42.0062 172.715 42.0062ZM183.487 42.0062C182.354 42.0062 181.46 41.7062 180.807 41.1062C180.154 40.5062 179.827 39.6995 179.827 38.6862C179.827 37.6062 180.187 36.7728 180.907 36.1862C181.627 35.5995 182.647 35.3062 183.967 35.3062H186.707V34.3662C186.707 33.8328 186.534 33.4195 186.187 33.1262C185.84 32.8195 185.367 32.6662 184.767 32.6662C184.22 32.6662 183.767 32.7862 183.407 33.0262C183.047 33.2662 182.834 33.5928 182.767 34.0062H180.327C180.447 32.9662 180.914 32.1395 181.727 31.5262C182.54 30.9128 183.58 30.6062 184.847 30.6062C186.194 30.6062 187.254 30.9462 188.027 31.6262C188.814 32.2928 189.207 33.1995 189.207 34.3462V41.8062H186.787V39.8862H186.387L186.787 39.3462C186.787 40.1595 186.487 40.8062 185.887 41.2862C185.287 41.7662 184.487 42.0062 183.487 42.0062ZM184.307 40.1262C185.014 40.1262 185.587 39.9462 186.027 39.5862C186.48 39.2262 186.707 38.7595 186.707 38.1862V36.8462H184.007C183.5 36.8462 183.094 36.9928 182.787 37.2862C182.48 37.5795 182.327 37.9662 182.327 38.4462C182.327 38.9662 182.5 39.3795 182.847 39.6862C183.207 39.9795 183.694 40.1262 184.307 40.1262ZM198.379 41.8062C197.659 41.8062 197.026 41.6595 196.479 41.3662C195.946 41.0728 195.526 40.6595 195.219 40.1262C194.913 39.5795 194.759 38.9528 194.759 38.2462V29.4662H191.239V27.2062H197.259V38.2462C197.259 38.6462 197.373 38.9662 197.599 39.2062C197.839 39.4328 198.159 39.5462 198.559 39.5462H201.879V41.8062H198.379Z" fill="#0099FF"/>
</svg>
