<svg width="234" height="50" viewBox="0 0 234 50" fill="none" xmlns="http://www.w3.org/2000/svg">
<path d="M1.93461 36.5V12.9961H7.37592L9.53313 20.4014C9.76924 21.1742 9.94096 21.8503 10.0483 22.4299C10.1771 23.0094 10.2522 23.4172 10.2737 23.6533C10.2951 23.4172 10.3595 23.0094 10.4668 22.4299C10.5956 21.8503 10.7674 21.1742 10.982 20.4014L13.107 12.9961H18.5483V36.5H14.1373V30.0606C14.1373 28.88 14.1588 27.6458 14.2017 26.3579C14.2661 25.0486 14.3412 23.7499 14.4271 22.4621C14.513 21.1742 14.6095 19.9721 14.7169 18.856C14.8242 17.7183 14.9208 16.731 15.0066 15.8938L12.3021 26.5189H8.21305L5.3797 15.8938C5.48702 16.688 5.59435 17.6432 5.70167 18.7594C5.809 19.8541 5.90559 21.0454 5.99145 22.3333C6.09877 23.5997 6.18463 24.8983 6.24902 26.2291C6.31342 27.5599 6.34561 28.8371 6.34561 30.0606V36.5H1.93461ZM22.1418 36.5V32.1212H28.2593V23.1382H22.9468V18.7916H32.7669V32.1212H37.9184V36.5H22.1418ZM30.1911 15.9904C29.3111 15.9904 28.6027 15.7651 28.0661 15.3143C27.5509 14.8635 27.2934 14.2518 27.2934 13.4791C27.2934 12.7063 27.5509 12.0946 28.0661 11.6438C28.6027 11.1931 29.3111 10.9677 30.1911 10.9677C31.0712 10.9677 31.7688 11.1931 32.2839 11.6438C32.8205 12.0946 33.0888 12.7063 33.0888 13.4791C33.0888 14.2518 32.8205 14.8635 32.2839 15.3143C31.7688 15.7651 31.0712 15.9904 30.1911 15.9904ZM41.3187 36.5V18.7916H45.9873V22.1723H47.404L45.9873 23.2992C45.9873 21.7966 46.4166 20.6161 47.2752 19.7575C48.1338 18.8989 49.2929 18.4696 50.7525 18.4696C52.4697 18.4696 53.8434 19.0706 54.8737 20.2726C55.9255 21.4747 56.4514 23.0738 56.4514 25.07V36.5H51.6218V25.553C51.6218 24.63 51.375 23.9217 50.8813 23.428C50.4091 22.9128 49.7329 22.6552 48.8529 22.6552C47.9943 22.6552 47.3289 22.9128 46.8566 23.428C46.3844 23.9217 46.1483 24.63 46.1483 25.553V36.5H41.3187ZM60.6244 36.5V12.9961H65.454V18.7916L65.293 22.1723H66.7097L65.293 23.2992C65.293 21.7966 65.7223 20.6161 66.5809 19.7575C67.4395 18.8989 68.5986 18.4696 70.0582 18.4696C71.7754 18.4696 73.1491 19.0706 74.1794 20.2726C75.2312 21.4747 75.7571 23.0738 75.7571 25.07V36.5H70.9275V25.553C70.9275 24.63 70.6807 23.9217 70.187 23.428C69.7148 22.9128 69.0386 22.6552 68.1586 22.6552C67.3 22.6552 66.6346 22.9128 66.1623 23.428C65.6901 23.9217 65.454 24.63 65.454 25.553V36.5H60.6244ZM85.1783 36.822C83.3967 36.822 81.98 36.339 80.9282 35.3731C79.8979 34.4072 79.3828 33.0978 79.3828 31.4451C79.3828 29.6635 79.9945 28.3005 81.218 27.356C82.463 26.3901 84.2445 25.9071 86.5627 25.9071H90.2332V24.5871C90.2332 23.9002 89.9864 23.3528 89.4927 22.945C89.0205 22.5372 88.3765 22.3333 87.5609 22.3333C86.8096 22.3333 86.1871 22.505 85.6934 22.8484C85.1997 23.1919 84.8992 23.6641 84.7919 24.2651H80.1233C80.3165 22.4835 81.0892 21.0776 82.4415 20.0473C83.8153 18.9955 85.5754 18.4696 87.7218 18.4696C89.9756 18.4696 91.7572 19.0277 93.0666 20.1439C94.3974 21.2386 95.0628 22.7196 95.0628 24.5871V36.5H90.3942V33.6023H89.6215L90.4264 32.4754C90.4264 33.8062 89.9434 34.8687 88.9775 35.6629C88.0331 36.4356 86.7667 36.822 85.1783 36.822ZM86.9813 33.2803C87.9258 33.2803 88.6985 33.0334 89.2995 32.5398C89.922 32.0246 90.2332 31.3592 90.2332 30.5435V28.6439H86.6593C85.9295 28.6439 85.3392 28.8585 84.8885 29.2878C84.4377 29.6957 84.2124 30.243 84.2124 30.9299C84.2124 31.6597 84.4592 32.2392 84.9529 32.6685C85.4466 33.0764 86.1227 33.2803 86.9813 33.2803ZM106.029 36.822C104.57 36.822 103.293 36.5966 102.198 36.1458C101.103 35.6736 100.245 35.0297 99.6222 34.214C99.0212 33.3983 98.7207 32.4432 98.7207 31.3485H103.55C103.55 31.8636 103.776 32.2822 104.226 32.6041C104.699 32.9047 105.3 33.0549 106.029 33.0549H107.446C108.326 33.0549 108.992 32.8939 109.442 32.572C109.915 32.25 110.151 31.7992 110.151 31.2197C110.151 30.6831 109.947 30.2752 109.539 29.9962C109.131 29.6957 108.498 29.4918 107.639 29.3844L105.579 29.1269C103.368 28.8478 101.758 28.3112 100.749 27.517C99.7402 26.7228 99.2358 25.51 99.2358 23.8787C99.2358 22.1615 99.8261 20.8307 101.007 19.8863C102.187 18.9418 103.915 18.4696 106.19 18.4696H107.414C109.582 18.4696 111.31 18.9418 112.598 19.8863C113.886 20.8307 114.529 22.0972 114.529 23.6855H109.7C109.7 23.2562 109.485 22.9128 109.056 22.6552C108.648 22.3762 108.101 22.2367 107.414 22.2367H106.19C105.396 22.2367 104.817 22.3762 104.452 22.6552C104.087 22.9128 103.904 23.3099 103.904 23.8465C103.904 24.3402 104.065 24.7159 104.387 24.9734C104.731 25.231 105.267 25.4135 105.997 25.5208L108.219 25.8106C110.451 26.0896 112.104 26.6477 113.177 27.4848C114.272 28.3219 114.819 29.5669 114.819 31.2197C114.819 33.0227 114.197 34.4072 112.952 35.3731C111.707 36.339 109.872 36.822 107.446 36.822H106.029Z" fill="white"/>
<path d="M119.475 36.5V12.9961H124.305V31.9924H133.803V36.5H119.475ZM142.194 36.822C140.627 36.822 139.253 36.5322 138.073 35.9526C136.914 35.3516 136.012 34.5252 135.368 33.4735C134.746 32.4002 134.434 31.1553 134.434 29.7386V25.553C134.434 24.1363 134.746 22.9021 135.368 21.8503C136.012 20.7771 136.914 19.9507 138.073 19.3711C139.253 18.7701 140.627 18.4696 142.194 18.4696C143.761 18.4696 145.113 18.7701 146.251 19.3711C147.41 19.9507 148.301 20.7771 148.923 21.8503C149.567 22.9021 149.889 24.1363 149.889 25.553V28.7727H139.039V29.7386C139.039 30.8548 139.307 31.7026 139.843 32.2822C140.38 32.8403 141.185 33.1193 142.258 33.1193C143.009 33.1193 143.611 32.9905 144.061 32.7329C144.533 32.4754 144.845 32.1212 144.995 31.6704H149.728C149.342 33.2159 148.462 34.4608 147.088 35.4053C145.736 36.3497 144.104 36.822 142.194 36.822ZM145.285 26.2935V25.4886C145.285 24.3939 145.027 23.5568 144.512 22.9772C144.018 22.3977 143.246 22.1079 142.194 22.1079C141.142 22.1079 140.348 22.4084 139.811 23.0094C139.296 23.6104 139.039 24.4583 139.039 25.553V26.0359L145.607 25.9715L145.285 26.2935ZM150.842 36.5V32.1212H156.96V23.1382H151.647V18.7916H161.467V32.1212H166.619V36.5H150.842ZM158.892 15.9904C158.012 15.9904 157.303 15.7651 156.767 15.3143C156.251 14.8635 155.994 14.2518 155.994 13.4791C155.994 12.7063 156.251 12.0946 156.767 11.6438C157.303 11.1931 158.012 10.9677 158.892 10.9677C159.772 10.9677 160.469 11.1931 160.984 11.6438C161.521 12.0946 161.789 12.7063 161.789 13.4791C161.789 14.2518 161.521 14.8635 160.984 15.3143C160.469 15.7651 159.772 15.9904 158.892 15.9904ZM173.593 36.822C172.133 36.822 170.856 36.5966 169.762 36.1458C168.667 35.6736 167.808 35.0297 167.186 34.214C166.585 33.3983 166.284 32.4432 166.284 31.3485H171.114C171.114 31.8636 171.339 32.2822 171.79 32.6041C172.262 32.9047 172.863 33.0549 173.593 33.0549H175.01C175.89 33.0549 176.555 32.8939 177.006 32.572C177.478 32.25 177.714 31.7992 177.714 31.2197C177.714 30.6831 177.51 30.2752 177.103 29.9962C176.695 29.6957 176.062 29.4918 175.203 29.3844L173.142 29.1269C170.931 28.8478 169.322 28.3112 168.313 27.517C167.304 26.7228 166.799 25.51 166.799 23.8787C166.799 22.1615 167.39 20.8307 168.57 19.8863C169.751 18.9418 171.479 18.4696 173.754 18.4696H174.978C177.145 18.4696 178.873 18.9418 180.161 19.8863C181.449 20.8307 182.093 22.0972 182.093 23.6855H177.264C177.264 23.2562 177.049 22.9128 176.62 22.6552C176.212 22.3762 175.664 22.2367 174.978 22.2367H173.754C172.96 22.2367 172.38 22.3762 172.015 22.6552C171.651 22.9128 171.468 23.3099 171.468 23.8465C171.468 24.3402 171.629 24.7159 171.951 24.9734C172.294 25.231 172.831 25.4135 173.561 25.5208L175.782 25.8106C178.015 26.0896 179.668 26.6477 180.741 27.4848C181.836 28.3219 182.383 29.5669 182.383 31.2197C182.383 33.0227 181.76 34.4072 180.515 35.3731C179.27 36.339 177.435 36.822 175.01 36.822H173.593Z" fill="white"/>
<path d="M232.94 25.6355L213.897 0.68281C213.529 0.20299 212.862 0.0538845 212.321 0.334331L190.242 11.7618L210.801 38.6974L232.524 27.4516C232.847 27.2847 233.08 26.988 233.158 26.6381C233.239 26.2882 233.159 25.922 232.94 25.6355Z" fill="white"/>
<path d="M232.738 30.2578L210.723 41.7993L211.056 42.437L233.071 30.894L232.738 30.2578Z" fill="white"/>
<path d="M210.425 45.6548L233.156 33.7353L232.823 33.0977L210.09 45.0186L210.425 45.6548Z" fill="white"/>
<path d="M233.17 35.3045L208.883 48.0322C208.145 48.2196 208.314 47.6434 208.313 46.7414C208.382 44.3167 208.973 42.1977 209.631 41.5047L188.606 13.4707C187.667 14.597 186.858 18.1021 187.527 21.9175L208.291 49.6026C208.442 49.8024 208.717 49.8638 208.937 49.7471L233.313 36.8334C233.53 36.7182 233.679 36.5062 233.715 36.2633C233.747 36.0205 233.664 35.7763 233.486 35.6056L233.17 35.3045Z" fill="white"/>
<path d="M209.08 12.6992L209.747 13.756L210.58 13.2301C210.837 13.0677 211.133 12.9757 211.436 12.9624L212.92 12.8959C212.965 12.8938 213.005 12.8811 213.043 12.8576L214.931 11.6647C215.1 11.5585 215.303 11.5234 215.497 11.5672C215.691 11.611 215.86 11.7301 215.966 11.8983C216.072 12.0665 216.107 12.27 216.064 12.464C216.02 12.658 215.901 12.8267 215.732 12.9329L215.371 13.1609L219.662 16.0008C219.789 16.0848 219.887 16.2055 219.943 16.3467C220 16.488 220.013 16.6431 219.979 16.7915L219.248 16.6264L219.979 16.7929L219.979 16.7951L219.978 16.7979L219.976 16.8062L219.974 16.8136L219.971 16.8274L219.954 16.8852C219.87 17.1475 219.757 17.3964 219.614 17.632C219.345 18.0792 218.89 18.6262 218.146 19.0961C217.559 19.4771 216.89 19.7155 216.194 19.7925C215.92 19.82 215.645 19.8152 215.373 19.7783L215.314 19.7685L215.292 19.7644L215.284 19.7625L215.278 19.7613L215.278 19.7604C215.13 19.727 214.995 19.6492 214.892 19.5373C214.788 19.4254 214.722 19.2848 214.7 19.1342L213.981 14.0393L213.844 14.1258C213.586 14.2887 213.291 14.3815 212.986 14.394L211.503 14.4605C211.459 14.4624 211.417 14.4757 211.38 14.4989L210.548 15.0243L215.621 23.0565L217.735 21.7216C217.903 21.6154 218.106 21.5803 218.3 21.6241C218.494 21.6679 218.663 21.787 218.769 21.9552C218.876 22.1234 218.911 22.3269 218.867 22.5209C218.823 22.7149 218.704 22.8836 218.536 22.9898L213.04 26.4607C212.872 26.5669 212.668 26.602 212.474 26.5581C212.28 26.5143 212.112 26.3952 212.005 26.227C211.899 26.0589 211.864 25.8554 211.908 25.6614C211.952 25.4673 212.071 25.2987 212.239 25.1924L214.353 23.8575L209.28 15.8253L208.448 16.3507C208.411 16.3739 208.381 16.4064 208.361 16.4448L207.664 17.7562C207.521 18.0246 207.31 18.2519 207.053 18.4147L206.916 18.5012L211.207 21.3406C211.334 21.4246 211.432 21.5453 211.489 21.6865C211.545 21.8277 211.558 21.9829 211.524 22.1313L210.793 21.9662L211.524 22.1327L211.524 22.1349L211.523 22.1377L211.521 22.146L211.516 22.1672L211.499 22.225C211.415 22.4872 211.302 22.7362 211.159 22.9718C210.89 23.419 210.435 23.966 209.691 24.4359C209.104 24.8169 208.435 25.0553 207.739 25.1323C207.466 25.1597 207.19 25.155 206.918 25.1181L206.859 25.1083L206.837 25.1042L206.829 25.1023L206.824 25.1011L206.823 25.1002C206.675 25.0668 206.54 24.9889 206.437 24.8771C206.333 24.7652 206.267 24.6246 206.245 24.4739L205.526 19.3791L205.164 19.6076C204.996 19.7139 204.792 19.7489 204.598 19.7051C204.404 19.6613 204.235 19.5422 204.129 19.374C204.023 19.2058 203.988 19.0023 204.032 18.8083C204.075 18.6143 204.195 18.4456 204.363 18.3394L206.252 17.1465C206.289 17.1232 206.319 17.0906 206.34 17.0518L207.035 15.7409C207.179 15.4726 207.389 15.2453 207.647 15.0824L208.479 14.557L207.812 13.5001C207.705 13.332 207.67 13.1285 207.714 12.9344C207.758 12.7404 207.877 12.5717 208.045 12.4655C208.213 12.3593 208.417 12.3243 208.611 12.3681C208.805 12.4119 208.974 12.531 209.08 12.6992ZM216.096 18.2939C216.409 18.2559 216.849 18.1413 217.345 17.8279C217.842 17.5144 218.134 17.1665 218.303 16.9002L215.651 15.1451L216.096 18.2939ZM207.641 23.6337C207.954 23.5956 208.394 23.4811 208.89 23.1677C209.387 22.8542 209.679 22.5063 209.848 22.24L207.196 20.4849L207.641 23.6337Z" fill="black"/>
</svg>
