<svg width="253" height="50" viewBox="0 0 253 50" fill="none" xmlns="http://www.w3.org/2000/svg">
<path d="M20.9346 36.5V12.9961H26.3759L28.5331 20.4014C28.7692 21.1742 28.941 21.8503 29.0483 22.4299C29.1771 23.0094 29.2522 23.4172 29.2737 23.6533C29.2951 23.4172 29.3595 23.0094 29.4668 22.4299C29.5956 21.8503 29.7674 21.1742 29.982 20.4014L32.107 12.9961H37.5483V36.5H33.1373V30.0606C33.1373 28.88 33.1588 27.6458 33.2017 26.3579C33.2661 25.0486 33.3412 23.7499 33.4271 22.4621C33.513 21.1742 33.6095 19.9721 33.7169 18.856C33.8242 17.7183 33.9208 16.731 34.0066 15.8938L31.3021 26.5189H27.213L24.3797 15.8938C24.487 16.688 24.5943 17.6432 24.7017 18.7594C24.809 19.8541 24.9056 21.0454 24.9914 22.3333C25.0988 23.5997 25.1846 24.8983 25.249 26.2291C25.3134 27.5599 25.3456 28.8371 25.3456 30.0606V36.5H20.9346ZM41.1418 36.5V32.1212H47.2593V23.1382H41.9468V18.7916H51.7669V32.1212H56.9184V36.5H41.1418ZM49.1911 15.9904C48.3111 15.9904 47.6027 15.7651 47.0661 15.3143C46.5509 14.8635 46.2934 14.2518 46.2934 13.4791C46.2934 12.7063 46.5509 12.0946 47.0661 11.6438C47.6027 11.1931 48.3111 10.9677 49.1911 10.9677C50.0712 10.9677 50.7688 11.1931 51.2839 11.6438C51.8205 12.0946 52.0888 12.7063 52.0888 13.4791C52.0888 14.2518 51.8205 14.8635 51.2839 15.3143C50.7688 15.7651 50.0712 15.9904 49.1911 15.9904ZM60.3187 36.5V18.7916H64.9873V22.1723H66.404L64.9873 23.2992C64.9873 21.7966 65.4166 20.6161 66.2752 19.7575C67.1338 18.8989 68.2929 18.4696 69.7525 18.4696C71.4697 18.4696 72.8434 19.0706 73.8737 20.2726C74.9255 21.4747 75.4514 23.0738 75.4514 25.07V36.5H70.6218V25.553C70.6218 24.63 70.375 23.9217 69.8813 23.428C69.4091 22.9128 68.7329 22.6552 67.8529 22.6552C66.9943 22.6552 66.3289 22.9128 65.8566 23.428C65.3844 23.9217 65.1483 24.63 65.1483 25.553V36.5H60.3187ZM79.6244 36.5V12.9961H84.454V18.7916L84.293 22.1723H85.7097L84.293 23.2992C84.293 21.7966 84.7223 20.6161 85.5809 19.7575C86.4395 18.8989 87.5986 18.4696 89.0582 18.4696C90.7754 18.4696 92.1491 19.0706 93.1794 20.2726C94.2312 21.4747 94.7571 23.0738 94.7571 25.07V36.5H89.9275V25.553C89.9275 24.63 89.6807 23.9217 89.187 23.428C88.7148 22.9128 88.0386 22.6552 87.1586 22.6552C86.3 22.6552 85.6346 22.9128 85.1623 23.428C84.6901 23.9217 84.454 24.63 84.454 25.553V36.5H79.6244ZM104.178 36.822C102.397 36.822 100.98 36.339 99.9282 35.3731C98.8979 34.4072 98.3828 33.0978 98.3828 31.4451C98.3828 29.6635 98.9945 28.3005 100.218 27.356C101.463 26.3901 103.245 25.9071 105.563 25.9071H109.233V24.5871C109.233 23.9002 108.986 23.3528 108.493 22.945C108.02 22.5372 107.377 22.3333 106.561 22.3333C105.81 22.3333 105.187 22.505 104.693 22.8484C104.2 23.1919 103.899 23.6641 103.792 24.2651H99.1233C99.3165 22.4835 100.089 21.0776 101.442 20.0473C102.815 18.9955 104.575 18.4696 106.722 18.4696C108.976 18.4696 110.757 19.0277 112.067 20.1439C113.397 21.2386 114.063 22.7196 114.063 24.5871V36.5H109.394V33.6023H108.621L109.426 32.4754C109.426 33.8062 108.943 34.8687 107.978 35.6629C107.033 36.4356 105.767 36.822 104.178 36.822ZM105.981 33.2803C106.926 33.2803 107.698 33.0334 108.299 32.5398C108.922 32.0246 109.233 31.3592 109.233 30.5435V28.6439H105.659C104.93 28.6439 104.339 28.8585 103.888 29.2878C103.438 29.6957 103.212 30.243 103.212 30.9299C103.212 31.6597 103.459 32.2392 103.953 32.6685C104.447 33.0764 105.123 33.2803 105.981 33.2803ZM125.029 36.822C123.57 36.822 122.293 36.5966 121.198 36.1458C120.103 35.6736 119.245 35.0297 118.622 34.214C118.021 33.3983 117.721 32.4432 117.721 31.3485H122.55C122.55 31.8636 122.776 32.2822 123.226 32.6041C123.699 32.9047 124.3 33.0549 125.029 33.0549H126.446C127.326 33.0549 127.992 32.8939 128.442 32.572C128.915 32.25 129.151 31.7992 129.151 31.2197C129.151 30.6831 128.947 30.2752 128.539 29.9962C128.131 29.6957 127.498 29.4918 126.639 29.3844L124.579 29.1269C122.368 28.8478 120.758 28.3112 119.749 27.517C118.74 26.7228 118.236 25.51 118.236 23.8787C118.236 22.1615 118.826 20.8307 120.007 19.8863C121.187 18.9418 122.915 18.4696 125.19 18.4696H126.414C128.582 18.4696 130.31 18.9418 131.598 19.8863C132.886 20.8307 133.529 22.0972 133.529 23.6855H128.7C128.7 23.2562 128.485 22.9128 128.056 22.6552C127.648 22.3762 127.101 22.2367 126.414 22.2367H125.19C124.396 22.2367 123.817 22.3762 123.452 22.6552C123.087 22.9128 122.904 23.3099 122.904 23.8465C122.904 24.3402 123.065 24.7159 123.387 24.9734C123.731 25.231 124.267 25.4135 124.997 25.5208L127.219 25.8106C129.451 26.0896 131.104 26.6477 132.177 27.4848C133.272 28.3219 133.819 29.5669 133.819 31.2197C133.819 33.0227 133.197 34.4072 131.952 35.3731C130.707 36.339 128.872 36.822 126.446 36.822H125.029Z" fill="#008CE9"/>
<path d="M138.475 36.5V12.9961H143.305V31.9924H152.803V36.5H138.475ZM161.194 36.822C159.627 36.822 158.253 36.5322 157.073 35.9526C155.914 35.3516 155.012 34.5252 154.368 33.4735C153.746 32.4002 153.434 31.1553 153.434 29.7386V25.553C153.434 24.1363 153.746 22.9021 154.368 21.8503C155.012 20.7771 155.914 19.9507 157.073 19.3711C158.253 18.7701 159.627 18.4696 161.194 18.4696C162.761 18.4696 164.113 18.7701 165.251 19.3711C166.41 19.9507 167.301 20.7771 167.923 21.8503C168.567 22.9021 168.889 24.1363 168.889 25.553V28.7727H158.039V29.7386C158.039 30.8548 158.307 31.7026 158.843 32.2822C159.38 32.8403 160.185 33.1193 161.258 33.1193C162.009 33.1193 162.611 32.9905 163.061 32.7329C163.533 32.4754 163.845 32.1212 163.995 31.6704H168.728C168.342 33.2159 167.462 34.4608 166.088 35.4053C164.736 36.3497 163.104 36.822 161.194 36.822ZM164.285 26.2935V25.4886C164.285 24.3939 164.027 23.5568 163.512 22.9772C163.018 22.3977 162.246 22.1079 161.194 22.1079C160.142 22.1079 159.348 22.4084 158.811 23.0094C158.296 23.6104 158.039 24.4583 158.039 25.553V26.0359L164.607 25.9715L164.285 26.2935ZM169.842 36.5V32.1212H175.96V23.1382H170.647V18.7916H180.467V32.1212H185.619V36.5H169.842ZM177.892 15.9904C177.012 15.9904 176.303 15.7651 175.767 15.3143C175.251 14.8635 174.994 14.2518 174.994 13.4791C174.994 12.7063 175.251 12.0946 175.767 11.6438C176.303 11.1931 177.012 10.9677 177.892 10.9677C178.772 10.9677 179.469 11.1931 179.984 11.6438C180.521 12.0946 180.789 12.7063 180.789 13.4791C180.789 14.2518 180.521 14.8635 179.984 15.3143C179.469 15.7651 178.772 15.9904 177.892 15.9904ZM192.593 36.822C191.133 36.822 189.856 36.5966 188.762 36.1458C187.667 35.6736 186.808 35.0297 186.186 34.214C185.585 33.3983 185.284 32.4432 185.284 31.3485H190.114C190.114 31.8636 190.339 32.2822 190.79 32.6041C191.262 32.9047 191.863 33.0549 192.593 33.0549H194.01C194.89 33.0549 195.555 32.8939 196.006 32.572C196.478 32.25 196.714 31.7992 196.714 31.2197C196.714 30.6831 196.51 30.2752 196.103 29.9962C195.695 29.6957 195.062 29.4918 194.203 29.3844L192.142 29.1269C189.931 28.8478 188.322 28.3112 187.313 27.517C186.304 26.7228 185.799 25.51 185.799 23.8787C185.799 22.1615 186.39 20.8307 187.57 19.8863C188.751 18.9418 190.479 18.4696 192.754 18.4696H193.978C196.145 18.4696 197.873 18.9418 199.161 19.8863C200.449 20.8307 201.093 22.0972 201.093 23.6855H196.264C196.264 23.2562 196.049 22.9128 195.62 22.6552C195.212 22.3762 194.664 22.2367 193.978 22.2367H192.754C191.96 22.2367 191.38 22.3762 191.015 22.6552C190.651 22.9128 190.468 23.3099 190.468 23.8465C190.468 24.3402 190.629 24.7159 190.951 24.9734C191.294 25.231 191.831 25.4135 192.561 25.5208L194.782 25.8106C197.015 26.0896 198.668 26.6477 199.741 27.4848C200.836 28.3219 201.383 29.5669 201.383 31.2197C201.383 33.0227 200.76 34.4072 199.515 35.3731C198.27 36.339 196.435 36.822 194.01 36.822H192.593Z" fill="#0061FF"/>
<path d="M251.94 25.6355L232.897 0.68281C232.529 0.20299 231.862 0.0538846 231.321 0.334331L209.242 11.7618L229.801 38.6974L251.524 27.4516C251.847 27.2847 252.08 26.988 252.158 26.6381C252.239 26.2882 252.159 25.922 251.94 25.6355Z" fill="#0199FE"/>
<path d="M251.738 30.2578L229.723 41.7993L230.056 42.437L252.071 30.894L251.738 30.2578Z" fill="#2A58A3"/>
<path d="M229.425 45.6548L252.156 33.7353L251.823 33.0977L229.09 45.0186L229.425 45.6548Z" fill="#2A58A3"/>
<path d="M252.17 35.3045L227.883 48.0322C227.145 48.2196 227.314 47.6434 227.313 46.7414C227.382 44.3167 227.973 42.1977 228.631 41.5047L207.606 13.4707C206.667 14.597 205.858 18.1021 206.527 21.9175L227.291 49.6026C227.442 49.8024 227.717 49.8638 227.937 49.7471L252.313 36.8334C252.53 36.7182 252.679 36.5062 252.715 36.2633C252.747 36.0205 252.664 35.7763 252.486 35.6056L252.17 35.3045Z" fill="#002640"/>
<path d="M228.08 12.6982L228.747 13.7551L229.58 13.2291C229.837 13.0668 230.133 12.9748 230.436 12.9615L231.92 12.8949C231.965 12.8929 232.005 12.8801 232.043 12.8566L233.931 11.6637C234.1 11.5575 234.303 11.5224 234.497 11.5662C234.691 11.6101 234.86 11.7291 234.966 11.8973C235.072 12.0655 235.107 12.269 235.064 12.463C235.02 12.657 234.901 12.8257 234.732 12.9319L234.371 13.1599L238.662 15.9998C238.789 16.0839 238.887 16.2045 238.943 16.3457C239 16.487 239.013 16.6421 238.979 16.7906L238.248 16.6255L238.979 16.7919L238.979 16.7942L238.978 16.7969L238.976 16.8052L238.974 16.8126L238.971 16.8264L238.954 16.8843C238.87 17.1465 238.757 17.3954 238.614 17.6311C238.345 18.0783 237.89 18.6252 237.146 19.0951C236.559 19.4761 235.89 19.7146 235.194 19.7915C234.92 19.819 234.645 19.8142 234.373 19.7774L234.314 19.7676L234.292 19.7634L234.284 19.7616L234.278 19.7603L234.278 19.7595C234.13 19.726 233.995 19.6482 233.892 19.5363C233.788 19.4245 233.722 19.2839 233.7 19.1332L232.981 14.0383L232.844 14.1248C232.586 14.2877 232.291 14.3806 231.986 14.393L230.503 14.4596C230.459 14.4615 230.417 14.4747 230.38 14.4979L229.548 15.0233L234.621 23.0556L236.735 21.7206C236.903 21.6144 237.106 21.5793 237.3 21.6232C237.494 21.667 237.663 21.7861 237.769 21.9542C237.876 22.1224 237.911 22.3259 237.867 22.5199C237.823 22.714 237.704 22.8826 237.536 22.9889L232.04 26.4597C231.872 26.5659 231.668 26.601 231.474 26.5572C231.28 26.5133 231.112 26.3943 231.005 26.2261C230.899 26.0579 230.864 25.8544 230.908 25.6604C230.952 25.4664 231.071 25.2977 231.239 25.1915L233.353 23.8565L228.28 15.8243L227.448 16.3497C227.411 16.373 227.381 16.4054 227.361 16.4438L226.664 17.7553C226.521 18.0236 226.31 18.2509 226.053 18.4138L225.916 18.5003L230.207 21.3396C230.334 21.4236 230.432 21.5443 230.489 21.6855C230.545 21.8268 230.558 21.9819 230.524 22.1303L229.793 21.9652L230.524 22.1317L230.524 22.1339L230.523 22.1367L230.521 22.145L230.516 22.1662L230.499 22.2241C230.415 22.4863 230.302 22.7352 230.159 22.9708C229.89 23.418 229.435 23.965 228.691 24.4349C228.104 24.8159 227.435 25.0543 226.739 25.1313C226.466 25.1588 226.19 25.154 225.918 25.1171L225.859 25.1074L225.837 25.1032L225.829 25.1013L225.824 25.1001L225.823 25.0993C225.675 25.0658 225.54 24.988 225.437 24.8761C225.333 24.7642 225.267 24.6236 225.245 24.473L224.526 19.3781L224.164 19.6067C223.996 19.7129 223.792 19.7479 223.598 19.7041C223.404 19.6603 223.235 19.5412 223.129 19.373C223.023 19.2048 222.988 19.0014 223.032 18.8073C223.075 18.6133 223.195 18.4446 223.363 18.3384L225.252 17.1455C225.289 17.1222 225.319 17.0896 225.34 17.0509L226.035 15.74C226.179 15.4716 226.389 15.2443 226.647 15.0815L227.479 14.556L226.812 13.4992C226.705 13.331 226.67 13.1275 226.714 12.9335C226.758 12.7394 226.877 12.5708 227.045 12.4646C227.213 12.3583 227.417 12.3233 227.611 12.3671C227.805 12.4109 227.974 12.53 228.08 12.6982ZM235.096 18.2929C235.409 18.2549 235.849 18.1403 236.345 17.8269C236.842 17.5135 237.134 17.1656 237.303 16.8992L234.651 15.1441L235.096 18.2929ZM226.641 23.6327C226.954 23.5947 227.394 23.4801 227.89 23.1667C228.387 22.8532 228.679 22.5053 228.848 22.239L226.196 20.4839L226.641 23.6327Z" fill="white"/>
</svg>
