<svg width="207" height="27" viewBox="0 0 207 27" fill="none" xmlns="http://www.w3.org/2000/svg">
<path d="M8.59394 26.322C6.94116 26.322 5.50302 26.0429 4.27953 25.4848C3.05604 24.9268 2.11159 24.1433 1.44618 23.1345C0.780775 22.1256 0.448072 20.9343 0.448072 19.5606H5.27764C5.27764 20.3548 5.57815 20.988 6.17916 21.4602C6.80164 21.911 7.63876 22.1363 8.69054 22.1363C9.69938 22.1363 10.4828 21.911 11.0409 21.4602C11.6205 21.0094 11.9102 20.387 11.9102 19.5928C11.9102 18.9059 11.6956 18.3156 11.2663 17.8219C10.837 17.3282 10.236 16.9955 9.46327 16.8238L7.08068 16.2765C5.08446 15.8042 3.52826 14.9349 2.4121 13.6685C1.31739 12.3806 0.770043 10.8137 0.770043 8.96772C0.770043 7.59398 1.08128 6.40268 1.70376 5.39384C2.3477 4.36353 3.24922 3.56934 4.40832 3.01125C5.56741 2.45317 6.94116 2.17413 8.52955 2.17413C10.9336 2.17413 12.8332 2.77514 14.2284 3.97717C15.6451 5.15773 16.3535 6.75685 16.3535 8.77454H11.5239C11.5239 8.02327 11.2556 7.43299 10.719 7.0037C10.2038 6.5744 9.45253 6.35975 8.46516 6.35975C7.54217 6.35975 6.83384 6.5744 6.34015 7.0037C5.84646 7.41153 5.59961 8.00181 5.59961 8.77454C5.59961 9.46141 5.79279 10.0517 6.17916 10.5454C6.58699 11.0176 7.15581 11.3396 7.88561 11.5113L10.397 12.0908C12.4791 12.5631 14.0567 13.4217 15.13 14.6666C16.2032 15.8901 16.7398 17.457 16.7398 19.3674C16.7398 20.7411 16.3964 21.9539 15.7095 23.0057C15.0441 24.0574 14.0997 24.8731 12.8762 25.4526C11.6741 26.0322 10.2467 26.322 8.59394 26.322ZM27.9318 26.322C26.3649 26.322 24.9912 26.0322 23.8106 25.4526C22.6515 24.8516 21.75 24.0252 21.1061 22.9735C20.4836 21.9002 20.1723 20.6553 20.1723 19.2386V15.053C20.1723 13.6363 20.4836 12.4021 21.1061 11.3503C21.75 10.2771 22.6515 9.45068 23.8106 8.87113C24.9912 8.27012 26.3649 7.96961 27.9318 7.96961C29.4988 7.96961 30.851 8.27012 31.9887 8.87113C33.1478 9.45068 34.0386 10.2771 34.661 11.3503C35.305 12.4021 35.627 13.6363 35.627 15.053V18.2727H24.7765V19.2386C24.7765 20.3548 25.0448 21.2026 25.5815 21.7822C26.1181 22.3403 26.923 22.6193 27.9962 22.6193C28.7475 22.6193 29.3485 22.4905 29.7993 22.2329C30.2715 21.9754 30.5827 21.6212 30.733 21.1704H35.466C35.0796 22.7159 34.1996 23.9608 32.8258 24.9053C31.4735 25.8497 29.8422 26.322 27.9318 26.322ZM31.0228 15.7935V14.9886C31.0228 13.8939 30.7652 13.0568 30.25 12.4772C29.7563 11.8977 28.9836 11.6079 27.9318 11.6079C26.8801 11.6079 26.0859 11.9084 25.5493 12.5094C25.0341 13.1104 24.7765 13.9583 24.7765 15.053V15.5359L31.3447 15.4715L31.0228 15.7935ZM47.2053 26.322C44.8228 26.322 42.9553 25.678 41.603 24.3901C40.2722 23.1023 39.6068 21.3421 39.6068 19.1098V8.29158H44.4364V19.0776C44.4364 20.065 44.6725 20.827 45.1447 21.3636C45.617 21.8788 46.3038 22.1363 47.2053 22.1363C48.0854 22.1363 48.7615 21.8788 49.2338 21.3636C49.7274 20.827 49.9743 20.065 49.9743 19.0776V8.29158H54.8039V19.1098C54.8039 21.3636 54.1277 23.1345 52.7754 24.4223C51.4232 25.6888 49.5665 26.322 47.2053 26.322ZM65.7705 26.322C64.3109 26.322 63.0337 26.0966 61.939 25.6458C60.8443 25.1736 59.9858 24.5297 59.3633 23.714C58.7623 22.8983 58.4618 21.9432 58.4618 20.8485H63.2913C63.2913 21.3636 63.5167 21.7822 63.9675 22.1041C64.4397 22.4047 65.0407 22.5549 65.7705 22.5549H67.1872C68.0672 22.5549 68.7326 22.3939 69.1834 22.072C69.6556 21.75 69.8917 21.2992 69.8917 20.7197C69.8917 20.1831 69.6878 19.7752 69.28 19.4962C68.8722 19.1957 68.2389 18.9918 67.3804 18.8844L65.3197 18.6269C63.1089 18.3478 61.499 17.8112 60.4902 17.017C59.4813 16.2228 58.9769 15.01 58.9769 13.3787C58.9769 11.6615 59.5672 10.3307 60.7478 9.38628C61.9283 8.44183 63.6562 7.96961 65.9315 7.96961H67.155C69.3229 7.96961 71.0508 8.44183 72.3387 9.38628C73.6266 10.3307 74.2705 11.5972 74.2705 13.1855H69.441C69.441 12.7562 69.2263 12.4128 68.797 12.1552C68.3892 11.8762 67.8419 11.7367 67.155 11.7367H65.9315C65.1373 11.7367 64.5577 11.8762 64.1928 12.1552C63.8279 12.4128 63.6455 12.8099 63.6455 13.3465C63.6455 13.8402 63.8065 14.2159 64.1284 14.4734C64.4719 14.731 65.0085 14.9135 65.7383 15.0208L67.9599 15.3106C70.1922 15.5896 71.845 16.1477 72.9183 16.9848C74.013 17.8219 74.5603 19.0669 74.5603 20.7197C74.5603 22.5227 73.9378 23.9072 72.6929 24.8731C71.4479 25.839 69.6127 26.322 67.1872 26.322H65.7705Z" fill="#0099FF"/>
<path d="M78.186 26V2.4961H85.8167C87.4481 2.4961 88.8647 2.80734 90.0668 3.42981C91.2902 4.05229 92.2347 4.93235 92.9001 6.06998C93.587 7.18615 93.9304 8.50623 93.9304 10.0302V18.4337C93.9304 19.9362 93.587 21.2563 92.9001 22.3939C92.2347 23.5316 91.2902 24.4223 90.0668 25.0663C88.8647 25.6888 87.4481 26 85.8167 26H78.186ZM83.0156 21.4924H85.8167C86.8041 21.4924 87.5983 21.2134 88.1993 20.6553C88.8003 20.0972 89.1008 19.3567 89.1008 18.4337V10.0302C89.1008 9.12871 88.8003 8.3989 88.1993 7.84082C87.5983 7.28274 86.8041 7.0037 85.8167 7.0037H83.0156V21.4924ZM94.4974 26V21.6212H100.615V12.6382H95.3023V8.29158H105.122V21.6212H110.274V26H94.4974ZM102.547 5.49043C101.667 5.49043 100.958 5.26505 100.422 4.81429C99.9065 4.36353 99.6489 3.75179 99.6489 2.97905C99.6489 2.20632 99.9065 1.59458 100.422 1.14382C100.958 0.693059 101.667 0.467679 102.547 0.467679C103.427 0.467679 104.124 0.693059 104.639 1.14382C105.176 1.59458 105.444 2.20632 105.444 2.97905C105.444 3.75179 105.176 4.36353 104.639 4.81429C104.124 5.26505 103.427 5.49043 102.547 5.49043ZM110.97 26V8.29158H115.477V11.6723H116.701L115.316 13.7329C115.316 11.8225 115.756 10.3844 116.636 9.41848C117.516 8.45257 118.804 7.96961 120.5 7.96961C122.453 7.96961 123.967 8.55989 125.04 9.74045C126.135 10.921 126.682 12.5845 126.682 14.731V16.1799H121.53V15.053C121.53 14.0871 121.262 13.3358 120.725 12.7992C120.21 12.2626 119.513 11.9942 118.633 11.9942C117.71 11.9942 117.001 12.2626 116.508 12.7992C116.035 13.3358 115.799 14.0871 115.799 15.053V26H110.97ZM134.107 26.322C132.54 26.322 131.166 26.0322 129.986 25.4526C128.827 24.8516 127.925 24.0252 127.281 22.9735C126.659 21.9002 126.347 20.6553 126.347 19.2386V15.053C126.347 13.6363 126.659 12.4021 127.281 11.3503C127.925 10.2771 128.827 9.45068 129.986 8.87113C131.166 8.27012 132.54 7.96961 134.107 7.96961C135.674 7.96961 137.026 8.27012 138.164 8.87113C139.323 9.45068 140.214 10.2771 140.836 11.3503C141.48 12.4021 141.802 13.6363 141.802 15.053V18.2727H130.952V19.2386C130.952 20.3548 131.22 21.2026 131.757 21.7822C132.293 22.3403 133.098 22.6193 134.171 22.6193C134.923 22.6193 135.524 22.4905 135.974 22.2329C136.447 21.9754 136.758 21.6212 136.908 21.1704H141.641C141.255 22.7159 140.375 23.9608 139.001 24.9053C137.649 25.8497 136.017 26.322 134.107 26.322ZM137.198 15.7935V14.9886C137.198 13.8939 136.94 13.0568 136.425 12.4772C135.931 11.8977 135.159 11.6079 134.107 11.6079C133.055 11.6079 132.261 11.9084 131.724 12.5094C131.209 13.1104 130.952 13.9583 130.952 15.053V15.5359L137.52 15.4715L137.198 15.7935ZM142.755 26V21.6212H148.873V12.6382H143.56V8.29158H153.38V21.6212H158.532V26H142.755ZM150.805 5.49043C149.925 5.49043 149.216 5.26505 148.68 4.81429C148.164 4.36353 147.907 3.75179 147.907 2.97905C147.907 2.20632 148.164 1.59458 148.68 1.14382C149.216 0.693059 149.925 0.467679 150.805 0.467679C151.685 0.467679 152.382 0.693059 152.897 1.14382C153.434 1.59458 153.702 2.20632 153.702 2.97905C153.702 3.75179 153.434 4.36353 152.897 4.81429C152.382 5.26505 151.685 5.49043 150.805 5.49043ZM168.178 26C166.375 26 164.959 25.4848 163.928 24.4545C162.898 23.4242 162.383 22.0076 162.383 20.2045V12.6382H157.714V8.29158H162.383V3.30103H167.213V8.29158H173.813V12.6382H167.213V20.2045C167.213 21.1704 167.696 21.6534 168.661 21.6534H173.491V26H168.178ZM182.333 26.322C180.766 26.322 179.403 26.0322 178.244 25.4526C177.085 24.8516 176.183 24.0252 175.539 22.9735C174.917 21.9002 174.605 20.6553 174.605 19.2386V15.053C174.605 13.6363 174.917 12.4021 175.539 11.3503C176.183 10.2771 177.085 9.45068 178.244 8.87113C179.403 8.27012 180.766 7.96961 182.333 7.96961C183.921 7.96961 185.284 8.27012 186.422 8.87113C187.581 9.45068 188.472 10.2771 189.094 11.3503C189.738 12.4021 190.06 13.6363 190.06 15.053V19.2386C190.06 20.6553 189.738 21.9002 189.094 22.9735C188.472 24.0252 187.581 24.8516 186.422 25.4526C185.284 26.0322 183.921 26.322 182.333 26.322ZM182.333 22.1363C183.277 22.1363 183.996 21.8895 184.49 21.3958C184.984 20.8807 185.23 20.1616 185.23 19.2386V15.053C185.23 14.1085 184.984 13.3895 184.49 12.8958C183.996 12.4021 183.277 12.1552 182.333 12.1552C181.41 12.1552 180.691 12.4021 180.175 12.8958C179.682 13.3895 179.435 14.1085 179.435 15.053V19.2386C179.435 20.1616 179.682 20.8807 180.175 21.3958C180.691 21.8895 181.41 22.1363 182.333 22.1363ZM197.678 26.322C196.218 26.322 194.941 26.0966 193.847 25.6458C192.752 25.1736 191.893 24.5297 191.271 23.714C190.67 22.8983 190.369 21.9432 190.369 20.8485H195.199C195.199 21.3636 195.424 21.7822 195.875 22.1041C196.347 22.4047 196.948 22.5549 197.678 22.5549H199.095C199.975 22.5549 200.64 22.3939 201.091 22.072C201.563 21.75 201.799 21.2992 201.799 20.7197C201.799 20.1831 201.595 19.7752 201.188 19.4962C200.78 19.1957 200.147 18.9918 199.288 18.8844L197.227 18.6269C195.016 18.3478 193.407 17.8112 192.398 17.017C191.389 16.2228 190.885 15.01 190.885 13.3787C190.885 11.6615 191.475 10.3307 192.655 9.38628C193.836 8.44183 195.564 7.96961 197.839 7.96961H199.063C201.231 7.96961 202.958 8.44183 204.246 9.38628C205.534 10.3307 206.178 11.5972 206.178 13.1855H201.349C201.349 12.7562 201.134 12.4128 200.705 12.1552C200.297 11.8762 199.749 11.7367 199.063 11.7367H197.839C197.045 11.7367 196.465 11.8762 196.1 12.1552C195.736 12.4128 195.553 12.8099 195.553 13.3465C195.553 13.8402 195.714 14.2159 196.036 14.4734C196.379 14.731 196.916 14.9135 197.646 15.0208L199.867 15.3106C202.1 15.5896 203.753 16.1477 204.826 16.9848C205.921 17.8219 206.468 19.0669 206.468 20.7197C206.468 22.5227 205.845 23.9072 204.6 24.8731C203.356 25.839 201.52 26.322 199.095 26.322H197.678Z" fill="#2A58A3"/>
</svg>
